/* XPM */
static char * bott_right_xpm[] = {
"32 32 49 1",
" 	c #83924C",
".	c #8D9958",
"+	c #839250",
"@	c #AE9063",
"#	c #B0905D",
"$	c #86944D",
"%	c #959F53",
"&	c #929C52",
"*	c #767E48",
"=	c #9E8157",
"-	c #AF8F5D",
";	c #85934D",
">	c #778348",
",	c #967F54",
"'	c #AC8C5B",
")	c #798149",
"!	c #9B8155",
"~	c #AD8E5C",
"{	c #949E52",
"]	c #97A154",
"^	c #96A053",
"/	c #949D52",
"(	c #768648",
"_	c #728347",
":	c #717E46",
"<	c #997F55",
"[	c #AD8D5C",
"}	c #88964E",
"|	c #9C7F56",
"1	c #738347",
"2	c #939E52",
"3	c #959E53",
"4	c #939D52",
"5	c #808F4B",
"6	c #758147",
"7	c #82914C",
"8	c #748447",
"9	c #84934C",
"0	c #909B51",
"a	c #949E53",
"b	c #839154",
"c	c #A0815B",
"d	c #677A43",
"e	c #9E7E57",
"f	c #98A154",
"g	c #A58961",
"h	c #A28258",
"i	c #A38359",
"j	c #AD8D5D",
"                         . +@###",
"                        $%&*=-##",
"                         ;>,'###",
"                        ;%&)!~##",
"                      ;;${]&*=-#",
"                     ;{^/(&&*=-#",
"                      $%% _:<[##",
"                       ;}%&:|-##",
"                       ;{^&:|-##",
"                        ;;1:<[##",
"                      ;;;23&*=-#",
"                     $%%;$4&*=-#",
"                    ;{^%;516,'##",
"                     ;;;78&&*=-#",
"                        90a&*=-#",
"                         +b+c###",
"                        dde#####",
"                       dffde####",
"                       fffde####",
"                       ddde#####",
"   ;                  fffde#####",
"  ;{$     ;          fdffde#####",
"  ;^%;   ${;         ffdde######",
"  ;%%; ;;%^;       fdffde#######",
" 97;;;;{}%/$; $ f  ffdde########",
"+085$2;^% ({%;%fffdffde#########",
"ba&1431&&_&]&>&dffddde##########",
"+&&6&&::::&&),*dddeee###########",
"g**,**<||<**!h=iee##############",
"#=='==[--[==~j-#################",
"#--#--####--####################",
"################################"};
