/* XPM */
static char * bott_left_xpm[] = {
"32 32 7 1",
" 	c #B0905D",
".	c #9E7E57",
"+	c #677A43",
"@	c #98A154",
"#	c #83924C",
"$	c #A6845D",
"%	c #BD9964",
"                   .+@@@########",
"                   .+@@#########",
"    $               .++#########",
"               $    .+@@@#######",
" $$        %%       .+@@+#######",
" $$        %%        .++@@@#####",
"                      .+@@+@####",
"                       .++@@+@+#",
"                        .+@@+@@+",
"         $               .+++@@+",
"   %                      ...++.",
"                             .. ",
"                                ",
"   $$    %%                     ",
"   $$    %%                     ",
"                                ",
"                                ",
"    $                           ",
"        $$          $           ",
"        $$                     $",
"              %  $$        %%   ",
"                 $$        %%   ",
"   %%                           ",
"   %%                           ",
"                                ",
"                         $      ",
"                   %            ",
"                                ",
"          %                     ",
"                   $$    %%     ",
"                   $$    %%     ",
"                                "};
