/* XPM */
static char * bott_left_xpm[] = {
"32 32 49 1",
" 	c #B0905D",
".	c #A58961",
"+	c #839250",
"@	c #839154",
"#	c #83924C",
"$	c #AF8F5D",
"%	c #9E8157",
"&	c #767E48",
"*	c #929C52",
"=	c #949E53",
"-	c #909B51",
";	c #84934C",
">	c #748447",
",	c #82914C",
"'	c #85934D",
")	c #AC8C5B",
"!	c #967F54",
"~	c #758147",
"{	c #738347",
"]	c #808F4B",
"^	c #959F53",
"/	c #96A053",
"(	c #949E52",
"_	c #939D52",
":	c #86944D",
"<	c #959E53",
"[	c #939E52",
"}	c #AD8D5C",
"|	c #997F55",
"1	c #717E46",
"2	c #9C7F56",
"3	c #88964E",
"4	c #728347",
"5	c #768648",
"6	c #949D52",
"7	c #97A154",
"8	c #AD8E5C",
"9	c #9B8155",
"0	c #798149",
"a	c #AD8D5D",
"b	c #A28258",
"c	c #778348",
"d	c #A38359",
"e	c #677A43",
"f	c #98A154",
"g	c #9E7E57",
"h	c #8D9958",
"i	c #A0815B",
"j	c #AE9063",
"   .+@+#########################",
" $%&*=-;########################",
" $%&**>,'''#####################",
"  )!~{]'^/('####################",
" $%&*_:'^^:#####################",
" $%&*<['''######################",
"  }|1{''########################",
"  $21*/('#######################",
"  $21*^3'#######################",
"  }|14#^^:######################",
" $%&**56/('#####################",
" $%&*7(:''######################",
"  890*^'########################",
"  ab!c'#########################",
"  $%&*^:########################",
"   deef#########################",
"   gefff########################",
"   geff#########################",
"    gee#########################",
"    gefff#######################",
"    geffe##########'############",
"     geefff#######'(:#####'#####",
"      geffef######'/^'###:('####",
"       geeffefe###'^^'#''^/'####",
"        geffeffe#;,''''(3^6:'#:#",
"         geeeffe+->]:['/^#5(^'^h",
"          gggeeg@=*{_<{**4*7*c*#",
"             gg +**~**1111**0!&+",
"                i&&!&&|22|&&9)%j",
"                 %%)%%}$$}%%8 $ ",
"                 $$ $$    $$    ",
"                                "};
