/* XPM */
static char * closed_exit_xpm[] = {
"32 32 205 2",
"  	c #83924C",
". 	c #B9C0A7",
"+ 	c #E0E3DA",
"@ 	c #AAB190",
"# 	c #859350",
"$ 	c #C3C9B4",
"% 	c #FDFDFD",
"& 	c #A5AE89",
"* 	c #DDE0D6",
"= 	c #E6E7E1",
"- 	c #A5A78C",
"; 	c #84924C",
"> 	c #859451",
", 	c #F5F6F3",
"' 	c #FFFFFF",
") 	c #ACB494",
"! 	c #F3F4F1",
"~ 	c #F5F3F3",
"{ 	c #ADA99A",
"] 	c #EFF0EC",
"^ 	c #C5CAB6",
"/ 	c #BDC0A8",
"( 	c #F0F0EC",
"_ 	c #EFF1EC",
": 	c #E9EAE4",
"< 	c #ECEDE8",
"[ 	c #FCFCFB",
"} 	c #EDEFE9",
"| 	c #F0F1ED",
"1 	c #CFD3C3",
"2 	c #BFC5AE",
"3 	c #E4E6DE",
"4 	c #F8F9F7",
"5 	c #EAE8E7",
"6 	c #A7A290",
"7 	c #849250",
"8 	c #EFF0EB",
"9 	c #F3F2F1",
"0 	c #A9A193",
"a 	c #E6E8E1",
"b 	c #F8F8F7",
"c 	c #FEFEFE",
"d 	c #FEFEFD",
"e 	c #F9F9F8",
"f 	c #EBECE6",
"g 	c #E5E7DF",
"h 	c #F1F2EE",
"i 	c #D8DBCF",
"j 	c #FAFAF9",
"k 	c #FAF9F9",
"l 	c #9A947F",
"m 	c #F6F7F5",
"n 	c #A5A08D",
"o 	c #F2F3EF",
"p 	c #F9FAF8",
"q 	c #F8F8F6",
"r 	c #FBFCFA",
"s 	c #FBFBFA",
"t 	c #FCFCFC",
"u 	c #859251",
"v 	c #99947C",
"w 	c #FEFFFE",
"x 	c #F7F7F5",
"y 	c #959376",
"z 	c #859250",
"A 	c #A2A089",
"B 	c #ECEEEA",
"C 	c #F6F6F4",
"D 	c #9A947E",
"E 	c #859252",
"F 	c #FDFDFC",
"G 	c #A0A086",
"H 	c #F8F9F6",
"I 	c #F6F7F4",
"J 	c #F7F8F5",
"K 	c #FAFBF9",
"L 	c #EEEFEA",
"M 	c #F2F1F0",
"N 	c #EAECE5",
"O 	c #E9ECE6",
"P 	c #D3D6C8",
"Q 	c #F3F4F0",
"R 	c #FAFAF8",
"S 	c #EDEEE9",
"T 	c #F4F5F2",
"U 	c #84934E",
"V 	c #92936F",
"W 	c #EDECEA",
"X 	c #9D9483",
"Y 	c #84934F",
"Z 	c #F1F2ED",
"` 	c #E8E8E2",
" .	c #9B9481",
"..	c #E7E8E1",
"+.	c #949373",
"@.	c #84924E",
"#.	c #E9EBE5",
"$.	c #E0DDDB",
"%.	c #9F9588",
"&.	c #879255",
"*.	c #E6E8E0",
"=.	c #A69D92",
"-.	c #E8EAE4",
";.	c #F9F8F8",
">.	c #869354",
",.	c #DBDED2",
"'.	c #E6E3E1",
").	c #ABA398",
"!.	c #E7E7E2",
"~.	c #969378",
"{.	c #E7E9E2",
"].	c #B4B0A3",
"^.	c #EFEEEB",
"/.	c #ECEBEA",
"(.	c #99947D",
"_.	c #859253",
":.	c #AFAA9C",
"<.	c #F3F3F1",
"[.	c #969377",
"}.	c #959574",
"|.	c #959375",
"1.	c #949473",
"2.	c #E3E5DE",
"3.	c #979379",
"4.	c #879256",
"5.	c #959475",
"6.	c #F6F6F5",
"7.	c #F7F6F6",
"8.	c #939370",
"9.	c #F4F3F1",
"0.	c #91936D",
"a.	c #97947A",
"b.	c #979378",
"c.	c #EAEAE6",
"d.	c #869253",
"e.	c #949374",
"f.	c #EEF0EB",
"g.	c #A2998A",
"h.	c #91936E",
"i.	c #F4F2F2",
"j.	c #ADA79B",
"k.	c #85904D",
"l.	c #898E4E",
"m.	c #85914D",
"n.	c #939372",
"o.	c #A69E90",
"p.	c #869255",
"q.	c #8E8B50",
"r.	c #988354",
"s.	c #968554",
"t.	c #958653",
"u.	c #8D8C50",
"v.	c #F9FAF9",
"w.	c #959374",
"x.	c #978454",
"y.	c #998255",
"z.	c #938752",
"A.	c #918952",
"B.	c #888F4E",
"C.	c #E4E2DF",
"D.	c #778748",
"E.	c #7E8E4A",
"F.	c #948753",
"G.	c #958553",
"H.	c #948653",
"I.	c #918951",
"J.	c #928852",
"K.	c #81904B",
"L.	c #778848",
"M.	c #6D7F45",
"N.	c #EFF0ED",
"O.	c #ACA49B",
"P.	c #738447",
"Q.	c #748447",
"R.	c #B7BEA6",
"S.	c #DCDED5",
"T.	c #89915E",
"U.	c #708145",
"V.	c #8E8B51",
"W.	c #9A8155",
"X.	c #998355",
"Y.	c #6F8046",
"Z.	c #A8B09A",
"`.	c #EAECE9",
" +	c #99A389",
".+	c #718347",
"++	c #7E8D4A",
"@+	c #708246",
"#+	c #6F8145",
"$+	c #718246",
"%+	c #6B7D45",
"&+	c #768747",
"*+	c #7B8B49",
"=+	c #8F8A51",
"-+	c #8B8D4F",
";+	c #788848",
">+	c #748547",
",+	c #697C44",
"'+	c #6B7D4A",
")+	c #6C7E44",
"!+	c #738446",
"~+	c #768648",
"{+	c #7C8C4A",
"]+	c #798949",
"^+	c #6F8146",
"                                                                ",
"    . + @                                           # $ % &     ",
"    * = -         ;                                 > , ' )     ",
"    ! ~ { ] ^ / ( _ : ] ] ] ] < [ } | , [ 1 1 2 3 ^ 1 4 5 6 7   ",
"    8 9 0 a ' b c c ' ' ' ' ' ' ' ' c d e f _ g h 4 i j k l 7   ",
"    m ' n o ' p q r % % % % d d [ e s % t d d ' , t g m ' l u   ",
"    p ' v f ' ' % d s [ t c d [ % % c ' ' ' w c % c x ' ' y z   ",
"    [ ' A B ' ' ' [ d t % c c ' , , e p C q ' ' ' c c ' ' D E   ",
"    F ' G H ' I c ' % ' F F p J 4 [ K e % F q L c ' [ ' M l u   ",
"    r ' G N O P | m < t | | Q , Q R C Q L f , h S 8 s T [ D z   ",
"  U I ' V 7                                           Q W X u   ",
"  Y Z ' V u                                         U ` c  .E   ",
"    ..' +.@.                                          #.$.%.&.  ",
"    *.% =.                                            -.;.l >.  ",
"    ,.'.).                                            !.;.~.E   ",
"    {.% ].                                            ^./.(._.  ",
"    + ;.:.                                            <.[ [._.  ",
"    | ' }.                                            < ' |._.  ",
"    ' ' 1.                                            2.' 3.4.  ",
"    ' ' 5.                                            6.7.D 4.  ",
"    ' ' 8.                                            9.7.|._.  ",
"    o ' 0._.                                          o [ a.    ",
"    h ' b.                                            c.M v d.  ",
"    *.' y                                             4 ' e.    ",
"    f.c g._.                                          j [ h.    ",
"    4 i.j._.                  k.k.k.k.k.l.m.          j M n.    ",
"    o ' o.p.            q.r.s.t.s.u.u.u.l.            v.' 8.    ",
"    h ' w.d.    l.q.u.u.x.y.s.t.z.s.A.A.A.B.          C C.8.    ",
"  D.f ' |.E.    A.F.G.H.H.s.x.t.z.I.J.r.q.u.k.  K.L.M.N.;.O.P.  ",
"P.Q.R.S.T.U.P.  k.k.B.V.q.r.W.y.X.G.F.V.G.q.A.  D.Y.M.Z.`. +.+++",
"  @+#+$+%+&+*+      u.A.z.V.J.=+-+u.A.V.B.l.      ;+>+,+'+)+P.  ",
"  K.!+~+{+                k.k.l.u.u.  k.            ]+U.^+{+    "};
