/* XPM */
static char * coin_xpm[] = {
"32 32 225 2",
"  	c #83924C",
". 	c #849250",
"+ 	c #959376",
"@ 	c #8E9367",
"# 	c #91936D",
"$ 	c #ABA796",
"% 	c #B5B5A2",
"& 	c #91936E",
"* 	c #C1BEB3",
"= 	c #DCDFD4",
"- 	c #939370",
"; 	c #C7C5BB",
"> 	c #92936F",
", 	c #D0CFC7",
"' 	c #D0D5C5",
") 	c #DBD9D3",
"! 	c #E3E5DD",
"~ 	c #ACB494",
"{ 	c #8C995E",
"] 	c #D0CFC8",
"^ 	c #ECEDE7",
"/ 	c #F4F3F1",
"( 	c #E8E8E3",
"_ 	c #B1B99C",
": 	c #D2D0C9",
"< 	c #CFD0C6",
"[ 	c #BCBBAD",
"} 	c #E0E0DB",
"| 	c #F6F6F4",
"1 	c #E1E3DA",
"2 	c #A8B18E",
"3 	c #CCC9C2",
"4 	c #D5D8CB",
"5 	c #89925C",
"6 	c #98947B",
"7 	c #9F9988",
"8 	c #F0F1ED",
"9 	c #EBECE6",
"0 	c #D3D7C9",
"a 	c #8F936A",
"b 	c #CAC8BF",
"c 	c #DBDFD3",
"d 	c #949374",
"e 	c #979378",
"f 	c #B7B3A7",
"g 	c #F5F6F3",
"h 	c #F3F4F0",
"i 	c #C5CBB7",
"j 	c #8B9360",
"k 	c #859253",
"l 	c #CAC6BF",
"m 	c #8B9361",
"n 	c #9A947F",
"o 	c #979379",
"p 	c #BBB8AC",
"q 	c #EFEFEC",
"r 	c #EFF0EB",
"s 	c #9B9580",
"t 	c #9A957F",
"u 	c #969377",
"v 	c #C1C0B3",
"w 	c #ECEEE8",
"x 	c #9FA981",
"y 	c #98947C",
"z 	c #A7A392",
"A 	c #C0BDB2",
"B 	c #F2F3F0",
"C 	c #B2B39F",
"D 	c #B8BDA5",
"E 	c #949373",
"F 	c #C4C4B6",
"G 	c #F2F3EF",
"H 	c #CBCDBF",
"I 	c #DADDD2",
"J 	c #939F6C",
"K 	c #99947C",
"L 	c #AEA99B",
"M 	c #E2E4DB",
"N 	c #DFE2D8",
"O 	c #CBD0BF",
"P 	c #99947D",
"Q 	c #C9CABD",
"R 	c #CFD3C4",
"S 	c #90936B",
"T 	c #E3E4DC",
"U 	c #959375",
"V 	c #C3C2B6",
"W 	c #DBDED2",
"X 	c #DCDDD5",
"Y 	c #E9EAE4",
"Z 	c #E7E9E2",
"` 	c #CFCEC4",
" .	c #8D9364",
"..	c #E8E9E3",
"+.	c #9B9480",
"@.	c #D8D8D0",
"#.	c #BFC5AE",
"$.	c #9A947E",
"%.	c #CDD0C1",
"&.	c #E8EAE3",
"*.	c #D8DBCF",
"=.	c #C7C7BA",
"-.	c #BCB8AC",
";.	c #E5E7DF",
">.	c #92936E",
",.	c #969378",
"'.	c #9C9482",
").	c #9A997C",
"!.	c #D3D5C9",
"~.	c #9C9681",
"{.	c #ABA697",
"].	c #BEBBB0",
"^.	c #EEEFEA",
"/.	c #CDCCC2",
"(.	c #81904B",
"_.	c #8A9161",
":.	c #7F8F4B",
"<.	c #98937A",
"[.	c #9C9782",
"}.	c #A7A590",
"|.	c #E6E8E1",
"1.	c #C6C5BB",
"2.	c #ECEDE8",
"3.	c #F6F7F5",
"4.	c #B2ACA1",
"5.	c #D2D2C9",
"6.	c #82914C",
"7.	c #788848",
"8.	c #8F996F",
"9.	c #D0CEC7",
"0.	c #D6D9CC",
"a.	c #768748",
"b.	c #7E8E4A",
"c.	c #8E9368",
"d.	c #A19C88",
"e.	c #B2AEA2",
"f.	c #9B9780",
"g.	c #979B76",
"h.	c #DEDDD8",
"i.	c #7A8A49",
"j.	c #728349",
"k.	c #788652",
"l.	c #708248",
"m.	c #708145",
"n.	c #808F4B",
"o.	c #B0B09D",
"p.	c #E3E6DD",
"q.	c #97937A",
"r.	c #9B9481",
"s.	c #738446",
"t.	c #708246",
"u.	c #798948",
"v.	c #7D8D4A",
"w.	c #C2C3B5",
"x.	c #81914B",
"y.	c #768747",
"z.	c #7D8C4A",
"A.	c #7B8B49",
"B.	c #939371",
"C.	c #99997A",
"D.	c #CCCCC1",
"E.	c #E0E3D9",
"F.	c #898E4E",
"G.	c #788948",
"H.	c #ACAB98",
"I.	c #CFD2C4",
"J.	c #CACFBD",
"K.	c #9C9781",
"L.	c #BCBDAD",
"M.	c #8C8C4F",
"N.	c #86904D",
"O.	c #798A49",
"P.	c #728446",
"Q.	c #748547",
"R.	c #748647",
"S.	c #ACAA98",
"T.	c #B6BAA3",
"U.	c #9C9682",
"V.	c #B9B7A9",
"W.	c #8E8B50",
"X.	c #8D8B50",
"Y.	c #918952",
"Z.	c #8C8C50",
"`.	c #778748",
" +	c #728346",
".+	c #758647",
"++	c #A2A189",
"@+	c #BAB9AA",
"#+	c #D2D2C7",
"$+	c #D3D6C8",
"%+	c #8A8D4F",
"&+	c #8F8A51",
"*+	c #988355",
"=+	c #958653",
"-+	c #918951",
";+	c #85904D",
">+	c #9F9888",
",+	c #C9C9BE",
"'+	c #888F4E",
")+	c #928852",
"!+	c #948753",
"~+	c #8D8C50",
"{+	c #918852",
"]+	c #718346",
"^+	c #778848",
"/+	c #D6D6CE",
"(+	c #DDE0D6",
"_+	c #84914D",
":+	c #958553",
"<+	c #8B8D4F",
"[+	c #84924C",
"}+	c #7C8C49",
"|+	c #C9CABE",
"1+	c #878F4E",
"2+	c #7E8D4A",
"3+	c #7F8A57",
"4+	c #D1D1C8",
"5+	c #C1C7B1",
"6+	c #85914D",
"7+	c #74834A",
"8+	c #8A9473",
"9+	c #798957",
"0+	c #6F8146",
"a+	c #6D7F45",
"b+	c #6C7E45",
"                                                                ",
"                                                                ",
"      . + @                                                     ",
"      # $ %                                                     ",
"      & * =                                                     ",
"      - ; =                                                     ",
"      > , '                                                     ",
"      # ) ! ~ {                                                 ",
"      # ] ^ / ( _                                               ",
"      @ : < [ } | 1 2                                           ",
"      @ 3 4 5 6 7 8 9 0                                         ",
"      a b c     d e f g h i                         j > k       ",
"      @ l c       m n o p q r                       - s t       ",
"      u v w x         k y z A B ' x                 - C D       ",
"      E F G H I J         k K L M N O 2           k P Q R       ",
"      S A T U V W _           P U X Y Z O J       5 o ` I       ",
"       .A ..E +.@ @.O #.        @ $.P %.B &.*.    k 6 =.R       ",
"       .-.;.  >.,.'.).!.O J         + ~.{.].^.I i k 6 /.i       ",
"    (._.A 1 :.:.  <.6 [.}.|.#.J         # 6 6 1.2.3.4.5.#.      ",
"  6.7.8.9.0.a.b.    5 c.n d.e.*.#.          - E f.g.4.h.R       ",
"  6.i.j.k.l.m.n.          5 n o.i p.            a q.r.5.O       ",
"    :.a.s.t.7.u.v.v.          > y 2 O R           > n w.4       ",
"        x.    i.y.v.z.A.z.      B.+.C.D.E.2 _     k 6 w.4       ",
"        F.      :.y.G.6.n.x.x.    k @ u H.I.1 J._ k K.L.4       ",
"        M.N.        O.P.Q.R.Q.:.      5 o 6 S.T.c %.U.V.4       ",
"      W.X.Y.Z.Y.        `. +.+Q.`.z.      # c.+ ++@+4.#+$+      ",
"      %+W.&+*+=+-+F.;+    x.i..+Q.P.A.        5 e <.>+,+$+      ",
"      '+Z.)+!+&+~+Y.{+X.      b.u.s.]+]+^+b.      m K /+(+      ",
"        '+_+W.F.&+-+:+!+!+<+F.[+  }+A.a. +.+6.    k 6 |+$+      ",
"        '+_+  ~+F.  F.W.{+N.-+1+      x.:.y.y.A.2+3+a 4+5+      ",
"              ;+F.<+6+  X.'+                :.}+Q.s.7+8+9+0+(.  ",
"                  6+    F.                        A.m.a+b+7.    "};
