/* XPM */
static char * collected_coin_xpm[] = {
"32 32 305 2",
"  	c #83924C",
". 	c #83904F",
"+ 	c #73715A",
"@ 	c #798052",
"# 	c #777B56",
"$ 	c #727360",
"% 	c #7F8369",
"& 	c #737A50",
"* 	c #7B7B6D",
"= 	c #929784",
"- 	c #71774F",
"; 	c #7F7F73",
"> 	c #72784F",
", 	c #838379",
"' 	c #90967D",
") 	c #747B4F",
"! 	c #888781",
"~ 	c #939688",
"{ 	c #899466",
"] 	c #849251",
"^ 	c #747B51",
"/ 	c #83837A",
"( 	c #94958D",
"_ 	c #949591",
": 	c #91928A",
"< 	c #8A9469",
"[ 	c #84847B",
"} 	c #878B7A",
"| 	c #7B7E6C",
"1 	c #8B8C85",
"2 	c #979893",
"3 	c #939787",
"4 	c #8D986B",
"5 	c #798053",
"6 	c #7F8076",
"7 	c #91977F",
"8 	c #7C884D",
"9 	c #696A50",
"0 	c #676655",
"a 	c #979991",
"b 	c #95988D",
"c 	c #9A9F8D",
"d 	c #787E54",
"e 	c #808075",
"f 	c #6F734F",
"g 	c #6B6E50",
"h 	c #757567",
"i 	c #989994",
"j 	c #989A94",
"k 	c #959C81",
"l 	c #7B864D",
"m 	c #72794F",
"n 	c #818E4E",
"o 	c #7F7E75",
"p 	c #7A854D",
"q 	c #666550",
"r 	c #6A6C50",
"s 	c #77776A",
"t 	c #959690",
"u 	c #676651",
"v 	c #6A6A53",
"w 	c #6D6F51",
"x 	c #7E806F",
"y 	c #96988E",
"z 	c #87935E",
"A 	c #818E4C",
"B 	c #696950",
"C 	c #6D6D5B",
"D 	c #979992",
"E 	c #90977E",
"F 	c #889461",
"G 	c #7C8166",
"H 	c #8A9270",
"I 	c #707550",
"J 	c #828572",
"K 	c #888C78",
"L 	c #929783",
"M 	c #869357",
"N 	c #686850",
"O 	c #6E6C5F",
"P 	c #939888",
"Q 	c #939786",
"R 	c #8F967B",
"S 	c #8A9565",
"T 	c #676750",
"U 	c #888C76",
"V 	c #91977E",
"W 	c #757D4F",
"X 	c #7D7D6E",
"Y 	c #929688",
"Z 	c #6E724F",
"` 	c #7F8170",
" .	c #686851",
"..	c #8F9384",
"+.	c #95988C",
"@.	c #94988B",
"#.	c #8F967A",
"$.	c #859356",
"%.	c #6B6D50",
"&.	c #868879",
"*.	c #929884",
"=.	c #78824E",
"-.	c #7A796D",
";.	c #93968B",
">.	c #6F744F",
",.	c #646250",
"'.	c #77804E",
").	c #898B7F",
"!.	c #8D9673",
"~.	c #788051",
"{.	c #676850",
"].	c #8C927A",
"^.	c #95988B",
"/.	c #919781",
"(.	c #848874",
"_.	c #90977D",
":.	c #79834E",
"<.	c #79796A",
"[.	c #94988A",
"}.	c #757954",
"|.	c #6C6E51",
"1.	c #636151",
"2.	c #707453",
"3.	c #8D917F",
"4.	c #6F7153",
"5.	c #6A6954",
"6.	c #70705F",
"7.	c #7A7B6C",
"8.	c #96998F",
"9.	c #8E9676",
"0.	c #858878",
"a.	c #81904B",
"b.	c #79844B",
"c.	c #7B7C6C",
"d.	c #949888",
"e.	c #788746",
"f.	c #768546",
"g.	c #6E6C59",
"h.	c #6D6A57",
"i.	c #6C6A58",
"j.	c #767760",
"k.	c #95998C",
"l.	c #757B52",
"m.	c #6A6B51",
"n.	c #7F8073",
"o.	c #989995",
"p.	c #6F6C62",
"q.	c #87897C",
"r.	c #8C9572",
"s.	c #82914C",
"t.	c #7E8D4A",
"u.	c #849158",
"v.	c #8F917F",
"w.	c #A7AB9A",
"x.	c #6A7941",
"y.	c #788747",
"z.	c #82895A",
"A.	c #7E805E",
"B.	c #6A6658",
"C.	c #706D5D",
"D.	c #747467",
"E.	c #939984",
"F.	c #717750",
"G.	c #6B6C52",
"H.	c #798154",
"I.	c #898A83",
"J.	c #8F967C",
"K.	c #7A8B49",
"L.	c #748449",
"M.	c #758350",
"N.	c #6C7D44",
"O.	c #6F7F44",
"P.	c #7F8F4B",
"Q.	c #818959",
"R.	c #696557",
"S.	c #818371",
"T.	c #979E83",
"U.	c #969A8C",
"V.	c #757D4E",
"W.	c #768748",
"X.	c #738446",
"Y.	c #708246",
"Z.	c #788848",
"`.	c #798948",
" +	c #7D8D4A",
".+	c #7B8B49",
"++	c #7A7960",
"@+	c #6E6A5B",
"#+	c #98A17D",
"$+	c #9BA08B",
"%+	c #939A82",
"&+	c #828571",
"*+	c #81914B",
"=+	c #7A8A49",
"-+	c #768747",
";+	c #7D8C4A",
">+	c #798848",
",+	c #768646",
"'+	c #7A7761",
")+	c #696359",
"!+	c #7D7D65",
"~+	c #94948A",
"{+	c #9FA397",
"]+	c #8E996D",
"^+	c #8D976E",
"/+	c #818E4D",
"(+	c #898E4E",
"_+	c #788948",
":+	c #808F4B",
"<+	c #838F52",
"[+	c #7F815F",
"}+	c #74705F",
"|+	c #868478",
"1+	c #A6A89D",
"2+	c #A4A79D",
"3+	c #989E86",
"4+	c #8B966C",
"5+	c #6A6B52",
"6+	c #80856D",
"7+	c #8B8C4F",
"8+	c #86904D",
"9+	c #798A49",
"0+	c #728446",
"a+	c #748547",
"b+	c #728346",
"c+	c #7D8C49",
"d+	c #736E5F",
"e+	c #706B5D",
"f+	c #807E73",
"g+	c #9CA08C",
"h+	c #A0A396",
"i+	c #90957F",
"j+	c #686752",
"k+	c #7B7E69",
"l+	c #8C884F",
"m+	c #8C8B50",
"n+	c #908852",
"o+	c #8B8B4F",
"p+	c #908851",
"q+	c #768647",
"r+	c #758647",
"s+	c #788847",
"t+	c #7C7C61",
"u+	c #7F8060",
"v+	c #757160",
"w+	c #7E7C6C",
"x+	c #88887B",
"y+	c #6F6D63",
"z+	c #87897B",
"A+	c #90967E",
"B+	c #8A8D4F",
"C+	c #8E8B50",
"D+	c #8F8A51",
"E+	c #988355",
"F+	c #948553",
"G+	c #85904D",
"H+	c #718346",
"I+	c #736E5E",
"J+	c #716C5D",
"K+	c #686456",
"L+	c #828476",
"M+	c #888E4E",
"N+	c #8C8C50",
"O+	c #928852",
"P+	c #948753",
"Q+	c #8D8C50",
"R+	c #918852",
"S+	c #8D8B50",
"T+	c #708245",
"U+	c #758546",
"V+	c #7C8B49",
"W+	c #81865C",
"X+	c #6D695A",
"Y+	c #8D8F84",
"Z+	c #929785",
"`+	c #888F4E",
" @	c #84914D",
".@	c #918951",
"+@	c #958553",
"@@	c #8B8D4F",
"#@	c #84914C",
"$@	c #838F53",
"%@	c #8D9083",
"&@	c #878D4D",
"*@	c #898E4F",
"=@	c #918851",
"-@	c #908951",
";@	c #878F4E",
">@	c #798453",
",@	c #838563",
"'@	c #969790",
")@	c #9CA388",
"!@	c #85914D",
"~@	c #8C8A4F",
"{@	c #878E4E",
"]@	c #7C8C49",
"^@	c #707E48",
"/@	c #767E62",
"(@	c #6B794C",
"_@	c #6F8146",
":@	c #848F4C",
"<@	c #888C4E",
"[@	c #708145",
"}@	c #6C7E44",
"|@	c #6B7D44",
"                                                                ",
"                                                                ",
"      . + @                                                     ",
"      # $ %                                                     ",
"      & * =                                                     ",
"      - ; =                                                     ",
"      > , '                                                     ",
"      ) ! ~ { ]                                                 ",
"      ^ / ( _ : <                                               ",
"      @ [ } | 1 2 3 4                                           ",
"      5 6 7 8 9 0 a b c                                         ",
"      d e =     f g h i j k                         l m n       ",
"      5 o =       p q r s t a                       - u v       ",
"      w x y z         A B C * D E F                 - G H       ",
"      I J D K L M         A N O P Q R S           A T U V       ",
"      W X Y Z ` L <            .Z ..+.@.#.$.      8 %.&.*.      ",
"      =.-.;.>.,.'.).#.!.        ~.u {.].D ^./.    A 9 (._.      ",
"      :.<.[.  }.|.1.2.3.#.$.        4.5.6.7.8.L 9.A 9 0.9.      ",
"    a.b.c.d.e.f.  g.h.i.j.k.!.$.        l.m.m.n.y o.p.q.r.      ",
"  s.t.u.v.w.x.y.    z.A.B.C.D.E.!.          F.I G.H.p.I.J.      ",
"  s.K.L.M.N.O.P.          Q.R.S.T.U.            V.r ,.q.#.      ",
"    P.W.X.Y.Z.`. +.+          ++@+#+$+%+          > q &+7       ",
"        *+    =+-+ +;+>+,+      '+)+!+~+{+]+^+    /+9 &+7       ",
"        (+      P.-+_+s.:+a.:+    <+[+}+|+1+2+3+4+A 5+6+7       ",
"        7+8+        9+0+a+a+b+c+      z.d+e+f+g+h+i+j+k+7       ",
"      l+m+n+o+p+        q+b+r+a+q+s+      t+u+v+w+x+y+z+A+      ",
"      B+C+D+E+F+p+(+G+    a.=+r+a+H+s+        z.I+J+K+L+A+      ",
"      M+N+O+P+D+Q+n+R+S+      ;+`.X.H+T+U+V+      W+X+Y+Z+      ",
"        `+ @C+(+D+.@+@P+P+@@(+#@  =+K.W.b+r+*+    $@J+%@7       ",
"        &@ @  Q+(+  *@C+=@8+-@;@      a.P.-+-+.+ +>@,@'@)@      ",
"              G+(+7+!@  ~@{@                P.]@a+X.^@/@(@_@a.  ",
"                  :@    <@                        .+[@}@|@Z.    "};
