/* XPM */
static char * default_xpm[] = {
"32 32 86 1",
" 	c #83924C",
".	c #7E8C49",
"+	c #282E14",
"@	c #5F6A36",
"#	c #778545",
"$	c #121607",
"%	c #6D793E",
"&	c #717E41",
"*	c #0E1105",
"=	c #748243",
"-	c #81904B",
";	c #363D1C",
">	c #535C2E",
",	c #596332",
"'	c #303618",
")	c #313819",
"!	c #808F4A",
"~	c #343B1B",
"{	c #060702",
"]	c #758343",
"^	c #798746",
"/	c #181B09",
"(	c #090B03",
"_	c #6B783D",
":	c #82914B",
"<	c #3C4420",
"[	c #4F592C",
"}	c #647039",
"|	c #1F230E",
"1	c #7C8A47",
"2	c #5C6634",
"3	c #2D3316",
"4	c #7F8E4A",
"5	c #475027",
"6	c #424B24",
"7	c #83914C",
"8	c #738042",
"9	c #0C0E04",
"0	c #7D8C48",
"a	c #252B12",
"b	c #616C37",
"c	c #000000",
"d	c #68743B",
"e	c #4B552A",
"f	c #525C2E",
"g	c #515B2D",
"h	c #21260F",
"i	c #191D0A",
"j	c #474F27",
"k	c #788645",
"l	c #6C793E",
"m	c #101406",
"n	c #3A411E",
"o	c #3F4722",
"p	c #7B8947",
"q	c #7E8D49",
"r	c #50592C",
"s	c #242911",
"t	c #7D8B48",
"u	c #262C12",
"v	c #67733A",
"w	c #69763C",
"x	c #1D220D",
"y	c #596432",
"z	c #3D4521",
"A	c #4C562A",
"B	c #313719",
"C	c #707D40",
"D	c #768344",
"E	c #485127",
"F	c #030401",
"G	c #576130",
"H	c #616D37",
"I	c #566030",
"J	c #6A763C",
"K	c #343A1B",
"L	c #758243",
"M	c #4C552A",
"N	c #69753C",
"O	c #38401E",
"P	c #232810",
"Q	c #7C8B48",
"R	c #7D8C49",
"S	c #505A2D",
"T	c #20240E",
"U	c #464F26",
"                                ",
"                                ",
"     .+@  #$%    .+@  #$%       ",
"      &*=-;>      &*=-;>        ",
"       ,'>)!       ,'>)!        ",
"       -~{]        -~{]         ",
"       ^/(_        ^/(_         ",
"      :<[}|1      :<[}|1        ",
"      234 567     234 567       ",
"     898  0ab    898  0ab       ",
"                                ",
"                                ",
"            c   dc              ",
"           ccc  ccc             ",
"           c cccc c d           ",
"          cc  cc  ccc           ",
"                   d            ",
"                                ",
"      ecf    .ghijk       ecf   ",
"     lhmf   :nopqrst     lhmf   ",
"    quvif   wc^  !xy    quvif   ",
"    gz7if   A)    eB    gz7if   ",
"   C{D if   ~E    2F-  C{D if   ",
"  !3G  if   a[    Hct !3G  if   ",
"  Iu4  if   s[    bct Iu4  if   ",
" ^FJ   if   KE    2F-^FJ   if   ",
" LccccccccC M)    eB LccccccccC ",
"       if   Nc^  !xy       if   ",
"       if   :OopqrPQ       if   ",
"       if    RST/Uk        if   ",
"                                ",
"                                "};
