/* XPM */
static char * enemy_2_xpm[] = {
"32 32 189 2",
"  	c #83924C",
". 	c #727F41",
"+ 	c #586231",
"@ 	c #6F7C40",
"# 	c #5F6A36",
"$ 	c #576130",
"% 	c #7F8D49",
"& 	c #66723A",
"* 	c #E07139",
"= 	c #C96834",
"- 	c #3A1206",
"; 	c #C92D1C",
"> 	c #723018",
", 	c #808E4A",
"' 	c #748142",
") 	c #B86133",
"! 	c #B86052",
"~ 	c #492C46",
"{ 	c #5F2446",
"] 	c #CA2E25",
"^ 	c #535C2E",
"/ 	c #83914C",
"( 	c #5C6737",
"_ 	c #E07244",
": 	c #00265C",
"< 	c #222A5C",
"[ 	c #212A5C",
"} 	c #3F2958",
"| 	c #505A31",
"1 	c #82914C",
"2 	c #5E6937",
"3 	c #1D2450",
"4 	c #00265D",
"5 	c #2A2B5C",
"6 	c #C3654F",
"7 	c #4C345A",
"8 	c #101431",
"9 	c #505A32",
"0 	c #252A21",
"a 	c #69753E",
"b 	c #748244",
"c 	c #232820",
"d 	c #262B21",
"e 	c #3C4329",
"f 	c #7E8D49",
"g 	c #5F6A38",
"h 	c #212855",
"i 	c #202A5C",
"j 	c #6A3E59",
"k 	c #F87E44",
"l 	c #F67D44",
"m 	c #FF8142",
"n 	c #F37B43",
"o 	c #4D220D",
"p 	c #281D0A",
"q 	c #758243",
"r 	c #1B224C",
"s 	c #232B5E",
"t 	c #1B214C",
"u 	c #181E46",
"v 	c #232B5D",
"w 	c #222A5D",
"x 	c #21295A",
"y 	c #151B40",
"z 	c #5D6835",
"A 	c #606C36",
"B 	c #1C223F",
"C 	c #1C2450",
"D 	c #854957",
"E 	c #FB7F43",
"F 	c #E5733A",
"G 	c #BB5D2E",
"H 	c #BF5F2F",
"I 	c #766935",
"J 	c #82914B",
"K 	c #505932",
"L 	c #0E122F",
"M 	c #202858",
"N 	c #282B5C",
"O 	c #BE6250",
"P 	c #F97E40",
"Q 	c #636231",
"R 	c #7D8C48",
"S 	c #151928",
"T 	c #55375A",
"U 	c #FF8341",
"V 	c #C56532",
"W 	c #707D40",
"X 	c #81904B",
"Y 	c #171B2E",
"Z 	c #3E305B",
"` 	c #54375A",
" .	c #FF8141",
"..	c #64421F",
"+.	c #39413A",
"@.	c #874A57",
"#.	c #BC6150",
"$.	c #4E325A",
"%.	c #B24B23",
"&.	c #7D8C49",
"*.	c #2F3632",
"=.	c #3F305A",
"-.	c #232A5C",
";.	c #23295A",
">.	c #23295B",
",.	c #311233",
"'.	c #1F2521",
").	c #212958",
"!.	c #22295B",
"~.	c #F17A46",
"{.	c #46325B",
"].	c #452A59",
"^.	c #9C1F10",
"/.	c #7C8A48",
"(.	c #495228",
"_.	c #59385A",
":.	c #C4654F",
"<.	c #292248",
"[.	c #281F4D",
"}.	c #36002A",
"|.	c #2A001E",
"1.	c #5E6935",
"2.	c #596432",
"3.	c #3A423D",
"4.	c #1A204A",
"5.	c #222B5D",
"6.	c #13285D",
"7.	c #00275D",
"8.	c #22295A",
"9.	c #3C3F25",
"0.	c #7F8E4A",
"a.	c #4D572B",
"b.	c #824755",
"c.	c #F77D45",
"d.	c #63170C",
"e.	c #881928",
"f.	c #383A1F",
"g.	c #7B8947",
"h.	c #211F15",
"i.	c #360B36",
"j.	c #330E34",
"k.	c #1B2224",
"l.	c #0E132A",
"m.	c #242A2E",
"n.	c #7F3F1B",
"o.	c #FF8343",
"p.	c #69190C",
"q.	c #D6301E",
"r.	c #433F1D",
"s.	c #242314",
"t.	c #39002D",
"u.	c #292C15",
"v.	c #252C21",
"w.	c #14295E",
"x.	c #252B21",
"y.	c #7F431F",
"z.	c #FE8142",
"A.	c #6A2210",
"B.	c #D22F1E",
"C.	c #464420",
"D.	c #616C37",
"E.	c #330727",
"F.	c #28001F",
"G.	c #768444",
"H.	c #55371B",
"I.	c #B35E54",
"J.	c #7B8A47",
"K.	c #50592C",
"L.	c #4F592C",
"M.	c #596332",
"N.	c #811727",
"O.	c #1F001C",
"P.	c #5B3819",
"Q.	c #DE714D",
"R.	c #362D3C",
"S.	c #788545",
"T.	c #98311A",
"U.	c #C62C1C",
"V.	c #596434",
"W.	c #788243",
"X.	c #C96431",
"Y.	c #E47444",
"Z.	c #5C6634",
"`.	c #A22215",
" +	c #C72C1C",
".+	c #626E38",
"++	c #B95C2D",
"@+	c #F77C3F",
"#+	c #5B6633",
"                                                                ",
"                                                                ",
"                                                                ",
"                                                                ",
"                                                                ",
"                                                                ",
"                                                                ",
"                                                                ",
"                                                                ",
"                                                                ",
"                                                                ",
"                                                                ",
"                                                                ",
"                                            . + @ # $ %         ",
"                                            & * = - ; > ,       ",
"                                            ' ) ! ~ { ] ^       ",
"                                          / ( _ : < [ } | 1     ",
"                                          2 3 4 : 5 6 7 8 $     ",
"          1 9 0 a b c d d e %         f g h i j k l m n o p     ",
"          q r s t u v w w x y z # # A B C < D E F G G G H I     ",
"          J K L w < < < < < < M M M M < < N O P Q R R R R J     ",
"              S w < < < < < < < < < < < < T U V W               ",
"            X Y w < < < < < < < < < < N Z `  ...                ",
"          f +.< < < < w w < < < < < @.#.6 $.%.&.                ",
"        X *.=.-.< ;.>.,.'.).!.< < < #.~.{.].^./.                ",
"        (._.:.<.[.}.|.1.  2.3.4.5.w 6.7.< 8.9.0.                ",
"        a.b.c.d.e.f.g.      0.h.i.j.k.l.s m.,                   ",
"          n.o.p.q.r.          s.t.u.  v.w.x.                    ",
"          y.z.A.B.C.        D.E.F.G.  H.I.x.                    ",
"          J.K.J.L.          M.N.O.%   P.Q.R.S.                  ",
"                          /.T.U.V.1   W.X.Y.Z.                  ",
"                          g.`. +.+    &.++@+#+                  "};
