/* XPM */
static char * enemy_4_xpm[] = {
"32 32 179 2",
"  	c #83924C",
". 	c #81904B",
"+ 	c #7E8C49",
"@ 	c #7F8E4A",
"# 	c #6C793E",
"$ 	c #A55127",
"% 	c #6D7A3F",
"& 	c #424A23",
"* 	c #8C3A1D",
"= 	c #7C8A47",
"- 	c #82914B",
"; 	c #674E26",
"> 	c #D36B36",
", 	c #6F7B3F",
"' 	c #7C180D",
") 	c #792E17",
"! 	c #82914C",
"~ 	c #404822",
"{ 	c #EF783C",
"] 	c #7D6A34",
"^ 	c #721404",
"/ 	c #AA2415",
"( 	c #6C783D",
"_ 	c #818F4B",
": 	c #6E7B3F",
"< 	c #D66D38",
"[ 	c #6A3E59",
"} 	c #3D2E57",
"| 	c #302857",
"1 	c #B62E38",
"2 	c #434722",
"3 	c #7A8846",
"4 	c #67733B",
"5 	c #68743B",
"6 	c #2E3539",
"7 	c #00143A",
"8 	c #B65E4A",
"9 	c #1E295C",
"0 	c #222A5C",
"a 	c #00265C",
"b 	c #09295D",
"c 	c #343B3C",
"d 	c #7C8A48",
"e 	c #454E29",
"f 	c #2E353C",
"g 	c #1F2655",
"h 	c #1F2654",
"i 	c #21295B",
"j 	c #1F2A5C",
"k 	c #3E305B",
"l 	c #3F305B",
"m 	c #ED7947",
"n 	c #904E56",
"o 	c #080B20",
"p 	c #282E14",
"q 	c #6B773D",
"r 	c #242A37",
"s 	c #111636",
"t 	c #212859",
"u 	c #613B5A",
"v 	c #A65754",
"w 	c #FF8342",
"x 	c #FF8243",
"y 	c #A75228",
"z 	c #612D13",
"A 	c #82904B",
"B 	c #3E4624",
"C 	c #65713A",
"D 	c #394028",
"E 	c #1E2553",
"F 	c #222A5B",
"G 	c #322D5C",
"H 	c #F27B46",
"I 	c #FD8041",
"J 	c #783C1C",
"K 	c #793D1C",
"L 	c #7B3E1C",
"M 	c #78733B",
"N 	c #505A2D",
"O 	c #12183A",
"P 	c #1D2334",
"Q 	c #1B224C",
"R 	c #0E285C",
"S 	c #1B295C",
"T 	c #924F56",
"U 	c #F57C3F",
"V 	c #7A5B2D",
"W 	c #525C2D",
"X 	c #21295A",
"Y 	c #1F2756",
"Z 	c #1D2451",
"` 	c #232A5C",
" .	c #1D295C",
"..	c #D16B4D",
"+.	c #00245D",
"@.	c #E87647",
"#.	c #7A5A2C",
"$.	c #151A25",
"%.	c #222B5D",
"&.	c #47335B",
"*.	c #FF8341",
"=.	c #E0724A",
"-.	c #452659",
";.	c #CE6540",
">.	c #4B552A",
",.	c #6B773F",
"'.	c #1B224D",
").	c #2E2C5C",
"!.	c #8F4D56",
"~.	c #47305A",
"{.	c #A82731",
"].	c #380E1A",
"^.	c #798645",
"/.	c #2E3442",
"(.	c #2C1F4D",
"_.	c #38002C",
":.	c #372B24",
"<.	c #556030",
"[.	c #2C204F",
"}.	c #222314",
"|.	c #545F3A",
"1.	c #0F1331",
"2.	c #141F48",
"3.	c #212A5C",
"4.	c #382F25",
"5.	c #7B8947",
"6.	c #1D2224",
"7.	c #372E5C",
"8.	c #673245",
"9.	c #292B16",
"0.	c #778042",
"a.	c #C76330",
"b.	c #683E59",
"c.	c #2D1F4D",
"d.	c #35002C",
"e.	c #1F1814",
"f.	c #67743E",
"g.	c #1C224E",
"h.	c #5E3A5A",
"i.	c #C05E37",
"j.	c #2D1625",
"k.	c #6E7A3F",
"l.	c #4E3819",
"m.	c #FF8343",
"n.	c #DA6F4A",
"o.	c #00052A",
"p.	c #A52221",
"q.	c #B42624",
"r.	c #54140D",
"s.	c #626E38",
"t.	c #E3733B",
"u.	c #CA643A",
"v.	c #C32D1F",
"w.	c #090B03",
"x.	c #F17A3E",
"y.	c #F77D40",
"z.	c #6F4B24",
"A.	c #891B10",
"B.	c #D22F1E",
"C.	c #A0301A",
"D.	c #788645",
"E.	c #5B3518",
"F.	c #FF8444",
"G.	c #D33921",
"H.	c #7C150C",
"I.	c #9A4B24",
"J.	c #8A6130",
"K.	c #808F4A",
"L.	c #755D2F",
"M.	c #831C10",
"N.	c #758343",
"O.	c #7C8947",
"P.	c #C05F2F",
"Q.	c #FB7B3F",
"R.	c #9A1B11",
"S.	c #7A8847",
"T.	c #9E8042",
"U.	c #C08A47",
"V.	c #8D743C",
"                                                                ",
"                                                                ",
"                                                                ",
"                                                                ",
"                                                                ",
"                                                                ",
"                                                                ",
"                                                                ",
"                                                                ",
"                                                                ",
"                                                                ",
"                                        . +   @ @               ",
"                                        # $ % & * =             ",
"                                        - ; > , ' ) !           ",
"                                          ~ { ] ^ / (           ",
"                                      _ : < [ } | 1 2           ",
"                                3 4 5 6 7 8 9 0 a b c d         ",
"                          . - e f g h i 0 j k l m n o p -       ",
"                      - q r s t 0 0 0 0 u v w w x w y z A       ",
"          B #     - C D E F 0 0 0 0 0 G H I J K K K L M         ",
"        N F O q : P Q 0 0 0 0 0 0 R S T U V                     ",
"        W X Y Z Z 0 0 0 0 0 0 `  ...+.@.#..                     ",
"          $.%.0 0 0 0 0 0 0 0 &.*.=.-.;.>.                      ",
"          ,.'.0 0 0 0 0 0 0 0 ).!.~.{.].^.                      ",
"          = /.F 0 0 0 Z Y 0 0 0 (._.:.3                         ",
"            <.X 0 0 [.}.|.1.2.3.(._.4.5.                        ",
"              6.%.7.8.9.  0.a.b.c.d.d.e.                        ",
"              f.g.h.i.j.k.l.m.n.o.p.q.r.                        ",
"                s.t.u.v.w.x.y.z.A.B.C.D.                        ",
"                  E.F.G.H.I.J.K.L.M.N.                          ",
"                  O.P.Q.R.S.-   - .                             ",
"                  K.T.U.V.K.                                    "};
