/* XPM */
static char * enemy_5_xpm[] = {
"32 32 190 2",
"  	c #83924C",
". 	c #454D25",
"+ 	c #686E38",
"@ 	c #7F8E4A",
"# 	c #373618",
"$ 	c #7D8B48",
"% 	c #676633",
"& 	c #C05F2F",
"* 	c #707039",
"= 	c #874824",
"- 	c #892615",
"; 	c #778545",
"> 	c #B65A2C",
", 	c #6B3D1C",
"' 	c #616C37",
") 	c #C22B1B",
"! 	c #5C6734",
"~ 	c #70763C",
"{ 	c #BB5E3D",
"] 	c #C8674D",
"^ 	c #00123A",
"/ 	c #A52C3D",
"( 	c #9C200F",
"_ 	c #7E8C49",
": 	c #82914B",
"< 	c #808F4A",
"[ 	c #67733C",
"} 	c #452317",
"| 	c #C36550",
"1 	c #202A5C",
"2 	c #222A5C",
"3 	c #282A5C",
"4 	c #411D3E",
"5 	c #7C8A48",
"6 	c #798746",
"7 	c #65713A",
"8 	c #4E5839",
"9 	c #13193B",
"0 	c #1B224C",
"a 	c #212A5D",
"b 	c #00265C",
"c 	c #7C4658",
"d 	c #A95953",
"e 	c #002154",
"f 	c #181C16",
"g 	c #778444",
"h 	c #6A763E",
"i 	c #2F3620",
"j 	c #2A313C",
"k 	c #1F2756",
"l 	c #212859",
"m 	c #212A5C",
"n 	c #46325B",
"o 	c #B15C52",
"p 	c #F17A46",
"q 	c #F87E44",
"r 	c #FE8142",
"s 	c #B65B32",
"t 	c #3E1A08",
"u 	c #606B36",
"v 	c #636F38",
"w 	c #7E8D49",
"x 	c #636E38",
"y 	c #141A3D",
"z 	c #14193D",
"A 	c #1A214B",
"B 	c #222A5D",
"C 	c #7A4558",
"D 	c #FA7F43",
"E 	c #E9753B",
"F 	c #C46130",
"G 	c #C56231",
"H 	c #C16231",
"I 	c #727F41",
"J 	c #4C552A",
"K 	c #202858",
"L 	c #2C322F",
"M 	c #818F4B",
"N 	c #47502C",
"O 	c #2D3320",
"P 	c #2D3322",
"Q 	c #202857",
"R 	c #202757",
"S 	c #262B5C",
"T 	c #B96051",
"U 	c #F47B3F",
"V 	c #6A6734",
"W 	c #3F4722",
"X 	c #232B5D",
"Y 	c #181E46",
"Z 	c #352E5C",
"` 	c #633C5A",
" .	c #ED773E",
"..	c #442D16",
"+.	c #121738",
"@.	c #44325B",
"#.	c #FF8142",
"$.	c #774358",
"%.	c #E86537",
"&.	c #4F2514",
"*.	c #0E1330",
"=.	c #844957",
"-.	c #50355B",
";.	c #711B3D",
">.	c #4D052A",
",.	c #5A6533",
"'.	c #4A5329",
").	c #212959",
"!.	c #222A5B",
"~.	c #252B31",
"{.	c #252B21",
"].	c #252B20",
"^.	c #212853",
"/.	c #202859",
"(.	c #1F295A",
"_.	c #45325C",
":.	c #0F0E29",
"<.	c #37002B",
"[.	c #38002C",
"}.	c #2C1420",
"|.	c #7D8C49",
"1.	c #424A24",
"2.	c #262757",
"3.	c #2E1C49",
"4.	c #25153B",
"5.	c #788645",
"6.	c #66723A",
"7.	c #5E6935",
"8.	c #49533A",
"9.	c #B55A31",
"0.	c #EA7749",
"a.	c #492A1D",
"b.	c #4B502C",
"c.	c #36002B",
"d.	c #711323",
"e.	c #6A6935",
"f.	c #6E7B40",
"g.	c #20274F",
"h.	c #21295B",
"i.	c #242859",
"j.	c #370430",
"k.	c #36002A",
"l.	c #525B2E",
"m.	c #82914C",
"n.	c #697039",
"o.	c #E8753B",
"p.	c #FD8041",
"q.	c #684521",
"r.	c #463119",
"s.	c #D22F1F",
"t.	c #502912",
"u.	c #69753C",
"v.	c #00194B",
"w.	c #AA5A54",
"x.	c #86233B",
"y.	c #310028",
"z.	c #330028",
"A.	c #586132",
"B.	c #AA5429",
"C.	c #975F2F",
"D.	c #758343",
"E.	c #9B301A",
"F.	c #BC291A",
"G.	c #6A6A36",
"H.	c #737C3F",
"I.	c #DD6F38",
"J.	c #F47C44",
"K.	c #DB4D2B",
"L.	c #CE2E1E",
"M.	c #672D19",
"N.	c #515A2E",
"O.	c #83914C",
"P.	c #71753B",
"Q.	c #59411E",
"R.	c #81904B",
"S.	c #68743B",
"T.	c #BE2D1B",
"U.	c #9A2816",
"V.	c #8D4520",
"W.	c #FF8343",
"X.	c #984B24",
"Y.	c #BA2719",
"Z.	c #C42B1B",
"`.	c #6F5F30",
" +	c #738042",
".+	c #767E41",
"++	c #533A1B",
"@+	c #5A5329",
"#+	c #CD4326",
"$+	c #6C371A",
"                                                                ",
"                                                                ",
"                                                                ",
"                                                                ",
"                                                                ",
"                                                                ",
"                                                                ",
"                                                                ",
"                                                                ",
"                                                                ",
"                                                                ",
"                                                                ",
"                                                                ",
"                                          . + @ # $             ",
"                                          % & * = - ;           ",
"                                          @ > , ' ) !           ",
"                                          ~ { ] ^ / ( _         ",
"                                    : < [ } | 1 2 3 4 5         ",
"                                6 7 8 9 0 a b b c d e f g       ",
"                        < < h i j k l 2 m n o p q r s t u       ",
"        v w         v x y z A B B 2 2 2 C D E F F F G H I       ",
"      J K L M N O P Q R 2 2 2 2 2 2 2 S T U V 5 5 5 5 $         ",
"      W X Y y K B B 2 2 2 2 2 2 2 Z T `  ...                    ",
"      _ +.2 2 2 2 2 2 2 2 2 2 2 2 @.#.$.%.&.:                   ",
"        *.2 2 2 2 B B B B 2 2 2 2 m =.-.;.>.,.                  ",
"      '.).2 2 2 !.~.{.{.].^././.(.-._.:.<.[.}.|.                ",
"      1.2 2 2.3.4.5.      6.7.7.8.9.0.a.b.c.d.e.                ",
"    f.g.h.i.j.k.l.m.            n.o.p.q.  r.s.t.                ",
"  u.v.w.x.y.z.A.              M B.#.C.< D.E.F.G.                ",
"H.I.J.K.L.M.N.O.                P.Q.R.  S.T.U.|.                ",
"V.W.X.Y.Z.`.                              6. +                  ",
".+++< @+#+$+                                                    "};
