/* XPM */
static char * enemy_6_xpm[] = {
"32 32 174 2",
"  	c #83924C",
". 	c #5B6633",
"+ 	c #6F4822",
"@ 	c #81904B",
"# 	c #333015",
"$ 	c #6D6633",
"% 	c #82914C",
"& 	c #768344",
"* 	c #AD592C",
"= 	c #996030",
"- 	c #6C6F38",
"; 	c #9C2013",
"> 	c #606131",
", 	c #7F8E4A",
"' 	c #824723",
") 	c #F07A47",
"! 	c #492D28",
"~ 	c #922228",
"{ 	c #C62D1D",
"] 	c #616C37",
"^ 	c #596432",
"/ 	c #EF7943",
"( 	c #00215D",
"_ 	c #212A5D",
": 	c #0E2A5D",
"< 	c #832A48",
"[ 	c #606B36",
"} 	c #82914B",
"| 	c #7C8A47",
"1 	c #2A3027",
"2 	c #1E2648",
"3 	c #42315B",
"4 	c #1F2A5C",
"5 	c #2E2C5C",
"6 	c #6C3F59",
"7 	c #2C2B5B",
"8 	c #161C3B",
"9 	c #778444",
"0 	c #7F8D49",
"a 	c #576130",
"b 	c #525C33",
"c 	c #181E45",
"d 	c #222A5C",
"e 	c #11285D",
"f 	c #45325B",
"g 	c #CA684E",
"h 	c #CF6A4D",
"i 	c #FF8341",
"j 	c #C5654A",
"k 	c #000000",
"l 	c #20240E",
"m 	c #7E8D49",
"n 	c #202523",
"o 	c #6A763F",
"p 	c #738043",
"q 	c #1B2022",
"r 	c #20252F",
"s 	c #21295A",
"t 	c #302D5C",
"u 	c #C9674E",
"v 	c #F87E43",
"w 	c #F17A3E",
"x 	c #F1793E",
"y 	c #EC773C",
"z 	c #5E4923",
"A 	c #454D25",
"B 	c #232B5D",
"C 	c #1B224D",
"D 	c #5A6533",
"E 	c #171D44",
"F 	c #192049",
"G 	c #222A5D",
"H 	c #613B5A",
"I 	c #FF8442",
"J 	c #B15C2D",
"K 	c #647039",
"L 	c #636F38",
"M 	c #636E38",
"N 	c #82904B",
"O 	c #818F4B",
"P 	c #2B3233",
"Q 	c #22295B",
"R 	c #212959",
"S 	c #00265C",
"T 	c #F17A45",
"U 	c #7D8B48",
"V 	c #1B224C",
"W 	c #12285C",
"X 	c #B25D52",
"Y 	c #F17840",
"Z 	c #794D27",
"` 	c #748243",
" .	c #00275C",
"..	c #EF7A46",
"+.	c #AB5A53",
"@.	c #6C3556",
"#.	c #931D0D",
"$.	c #69753C",
"%.	c #0A1B42",
"&.	c #4E5938",
"*.	c #535D36",
"=.	c #1F2655",
"-.	c #212B5D",
";.	c #1A214B",
">.	c #151B40",
",.	c #151B3F",
"'.	c #46325B",
").	c #834958",
"!.	c #471D46",
"~.	c #711221",
"{.	c #606B37",
"].	c #464F26",
"^.	c #924E56",
"/.	c #8C4B54",
"(.	c #23295A",
"_.	c #360733",
":.	c #29201E",
"<.	c #2D3322",
"[.	c #282D20",
"}.	c #282E1F",
"|.	c #212857",
"1.	c #1E2858",
"2.	c #53365A",
"3.	c #1F2A5D",
"4.	c #360A35",
"5.	c #39002C",
"6.	c #2D3118",
"7.	c #7B8A47",
"8.	c #A86030",
"9.	c #ED7442",
"0.	c #551C48",
"a.	c #252859",
"b.	c #360B36",
"c.	c #342922",
"d.	c #7A8846",
"e.	c #BC5F32",
"f.	c #C06351",
"g.	c #2F2A58",
"h.	c #39002B",
"i.	c #322222",
"j.	c #758243",
"k.	c #728042",
"l.	c #DD6F38",
"m.	c #F5743C",
"n.	c #C72A1D",
"o.	c #380731",
"p.	c #2B2427",
"q.	c #262B1F",
"r.	c #262715",
"s.	c #7E8C49",
"t.	c #798444",
"u.	c #CC6633",
"v.	c #EA7641",
"w.	c #390D22",
"x.	c #4D0628",
"y.	c #626E37",
"z.	c #7B8947",
"A.	c #AA5F2F",
"B.	c #E75B30",
"C.	c #74130B",
"D.	c #5C6734",
"E.	c #9C6130",
"F.	c #FC8041",
"G.	c #D15C35",
"H.	c #CB2D1D",
"I.	c #7B5129",
"J.	c #4F2912",
"K.	c #72793E",
"L.	c #B1562A",
"M.	c #CD2E1D",
"N.	c #931E12",
"O.	c #5E6935",
"P.	c #3C4320",
"Q.	c #CC2D1D",
"                                                                ",
"                                                                ",
"                                                                ",
"                                                                ",
"                                                                ",
"                                                                ",
"                                                                ",
"                                                                ",
"                                                                ",
"                                                                ",
"                                                                ",
"                                                                ",
"                                                                ",
"                                                                ",
"                                          . + @ # $ %           ",
"                                          & * = - ; >           ",
"                                          , ' ) ! ~ { ]         ",
"                                          ^ / ( _ : < [         ",
"                                    } | 1 2 3 4 5 6 7 8 9       ",
"                                0 a b c d e f g h i j k l       ",
"      m n o     | | | | | | p q r s s d t u v w w w x y z       ",
"      A B C ^ D E E E E E E F B G d d d H I J K L L L M N       ",
"      O P Q R R d d d d d d d d d d d S T J U                   ",
"        & V d d d d d d d d d d d W X ( Y Z @                   ",
"    U @ ` C d d d d d d d d d d d  ...+.@.#.,                   ",
"  $.%.&.*.=.d d -.;.>.,.d G G G d d '.).!.~.{.                  ",
"  ].^./.R d d (._.:.U 0 <.[.[.}.|.1.2.3.4.5.6.                  ",
"7.8.9.0._ G a.b.c.d.            ] [ e.f.g.h.i.j.                ",
"k.l.m.n.o.p.q.r.s.                  t.u.v.w.x.y.                ",
"z.A.B.C.D.d.                        0 E.F.G.H.I.@               ",
"  0 J.K.                              D.w L.M.N.0               ",
"                                        O.P.Q.N.0               "};
