/* XPM */
static char * left_xpm[] = {
"32 32 13 1",
" 	c #AC8C5C",
".	c #B0905D",
"+	c #9E7E57",
"@	c #677A43",
"#	c #83924C",
"$	c #A9895B",
"%	c #98A154",
"&	c #6D7A45",
"*	c #9A9655",
"=	c #999A55",
"-	c #9A9955",
";	c #6C7A45",
">	c #797B49",
" ..+@@@#########################",
" $+@%%%#########################",
"..+@%%@#########################",
"...+&@##%%%#####################",
"..+&*%##%%######################",
"..+@=-%#########################",
"...+;>##########################",
"...+@%%%########################",
"...+@%%#########################",
"...+@@#%%#######################",
"..+@%%@%%%######################",
"..+@%%%#########################",
"...+@%%#########################",
"....+@##########################",
"...+@%%#########################",
"...+@%%%########################",
"...+@@@#########################",
"..+@%%%#########################",
"..+@%%@#########################",
"...+@@##%%%#####################",
"..+@%%##%%######################",
"..+@%%%#########################",
"...+@@##########################",
"...+@%%%########################",
"...+@%%#########################",
"...+@@#%%#######################",
"..+@%%@%%%######################",
"..+@%%%#########################",
"...+@%%#########################",
"....+@##########################",
"...+@%%#########################",
"...+@%%%########################"};
