/* XPM */
static char * left_xpm[] = {
"32 32 15 1",
" 	c #B0905D",
".	c #AC8C5C",
"+	c #9E7E57",
"@	c #677A43",
"#	c #83924C",
"$	c #A6845D",
"%	c #A9895B",
"&	c #98A154",
"*	c #6D7A45",
"=	c #BD9964",
"-	c #9A9655",
";	c #999A55",
">	c #9A9955",
",	c #6C7A45",
"'	c #797B49",
"                .  +@@@#########",
"    $           .%+@&&&#########",
"        $$        +@&&@#########",
"        $$         +*@##&&&#####",
"              =   +*-&##&&######",
"                  +@;>&#########",
"   ==              +,'##########",
"   ==              +@&&&########",
"                   +@&&#########",
"                   +@@#&&#######",
"                  +@&&@&&&######",
"                  +@&&&#########",
"          =        +@&&#########",
"                    +@##########",
"                   +@&&#########",
"                   +@&&&########",
"                   +@@@#########",
"                  +@&&&#########",
"    $             +@&&@#########",
"               $   +@@##&&&#####",
" $$        ==     +@&&##&&######",
" $$        ==     +@&&&#########",
"                   +@@##########",
"                   +@&&&########",
"                   +@&&#########",
"         $         +@@#&&#######",
"   =              +@&&@&&&######",
"                  +@&&&#########",
"                   +@&&#########",
"   $$    ==         +@##########",
"   $$    ==        +@&&#########",
"                   +@&&&########"};
