/* XPM */
static char * lenemy_2_xpm[] = {
"32 32 189 2",
"  	c #83924C",
". 	c #7F8D49",
"+ 	c #576130",
"@ 	c #5F6A36",
"# 	c #6F7C40",
"$ 	c #586231",
"% 	c #727F41",
"& 	c #808E4A",
"* 	c #723018",
"= 	c #C92D1C",
"- 	c #3A1206",
"; 	c #C96834",
"> 	c #E07139",
", 	c #66723A",
"' 	c #535C2E",
") 	c #CA2E25",
"! 	c #5F2446",
"~ 	c #492C46",
"{ 	c #B86052",
"] 	c #B86133",
"^ 	c #748142",
"/ 	c #82914C",
"( 	c #505A31",
"_ 	c #3F2958",
": 	c #212A5C",
"< 	c #222A5C",
"[ 	c #00265C",
"} 	c #E07244",
"| 	c #5C6737",
"1 	c #83914C",
"2 	c #101431",
"3 	c #4C345A",
"4 	c #C3654F",
"5 	c #2A2B5C",
"6 	c #00265D",
"7 	c #1D2450",
"8 	c #5E6937",
"9 	c #281D0A",
"0 	c #4D220D",
"a 	c #F37B43",
"b 	c #FF8142",
"c 	c #F67D44",
"d 	c #F87E44",
"e 	c #6A3E59",
"f 	c #202A5C",
"g 	c #212855",
"h 	c #5F6A38",
"i 	c #7E8D49",
"j 	c #3C4329",
"k 	c #262B21",
"l 	c #232820",
"m 	c #748244",
"n 	c #69753E",
"o 	c #252A21",
"p 	c #505A32",
"q 	c #766935",
"r 	c #BF5F2F",
"s 	c #BB5D2E",
"t 	c #E5733A",
"u 	c #FB7F43",
"v 	c #854957",
"w 	c #1C2450",
"x 	c #1C223F",
"y 	c #606C36",
"z 	c #5D6835",
"A 	c #151B40",
"B 	c #21295A",
"C 	c #222A5D",
"D 	c #232B5D",
"E 	c #181E46",
"F 	c #1B214C",
"G 	c #232B5E",
"H 	c #1B224C",
"I 	c #758243",
"J 	c #82914B",
"K 	c #7D8C48",
"L 	c #636231",
"M 	c #F97E40",
"N 	c #BE6250",
"O 	c #282B5C",
"P 	c #202858",
"Q 	c #0E122F",
"R 	c #505932",
"S 	c #707D40",
"T 	c #C56532",
"U 	c #FF8341",
"V 	c #55375A",
"W 	c #151928",
"X 	c #64421F",
"Y 	c #FF8141",
"Z 	c #54375A",
"` 	c #3E305B",
" .	c #171B2E",
"..	c #81904B",
"+.	c #7D8C49",
"@.	c #B24B23",
"#.	c #4E325A",
"$.	c #BC6150",
"%.	c #874A57",
"&.	c #39413A",
"*.	c #7C8A48",
"=.	c #9C1F10",
"-.	c #452A59",
";.	c #46325B",
">.	c #F17A46",
",.	c #22295B",
"'.	c #212958",
").	c #1F2521",
"!.	c #311233",
"~.	c #23295B",
"{.	c #23295A",
"].	c #232A5C",
"^.	c #3F305A",
"/.	c #2F3632",
"(.	c #7F8E4A",
"_.	c #3C3F25",
":.	c #22295A",
"<.	c #00275D",
"[.	c #13285D",
"}.	c #222B5D",
"|.	c #1A204A",
"1.	c #3A423D",
"2.	c #596432",
"3.	c #5E6935",
"4.	c #2A001E",
"5.	c #36002A",
"6.	c #281F4D",
"7.	c #292248",
"8.	c #C4654F",
"9.	c #59385A",
"0.	c #495228",
"a.	c #242A2E",
"b.	c #0E132A",
"c.	c #1B2224",
"d.	c #330E34",
"e.	c #360B36",
"f.	c #211F15",
"g.	c #7B8947",
"h.	c #383A1F",
"i.	c #881928",
"j.	c #63170C",
"k.	c #F77D45",
"l.	c #824755",
"m.	c #4D572B",
"n.	c #252B21",
"o.	c #14295E",
"p.	c #252C21",
"q.	c #292C15",
"r.	c #39002D",
"s.	c #242314",
"t.	c #433F1D",
"u.	c #D6301E",
"v.	c #69190C",
"w.	c #FF8343",
"x.	c #7F3F1B",
"y.	c #B35E54",
"z.	c #55371B",
"A.	c #768444",
"B.	c #28001F",
"C.	c #330727",
"D.	c #616C37",
"E.	c #464420",
"F.	c #D22F1E",
"G.	c #6A2210",
"H.	c #FE8142",
"I.	c #7F431F",
"J.	c #788545",
"K.	c #362D3C",
"L.	c #DE714D",
"M.	c #5B3819",
"N.	c #1F001C",
"O.	c #811727",
"P.	c #596332",
"Q.	c #4F592C",
"R.	c #7B8A47",
"S.	c #50592C",
"T.	c #5C6634",
"U.	c #E47444",
"V.	c #C96431",
"W.	c #788243",
"X.	c #596434",
"Y.	c #C62C1C",
"Z.	c #98311A",
"`.	c #5B6633",
" +	c #F77C3F",
".+	c #B95C2D",
"++	c #626E38",
"@+	c #C72C1C",
"#+	c #A22215",
"                                                                ",
"                                                                ",
"                                                                ",
"                                                                ",
"                                                                ",
"                                                                ",
"                                                                ",
"                                                                ",
"                                                                ",
"                                                                ",
"                                                                ",
"                                                                ",
"                                                                ",
"        . + @ # $ %                                             ",
"      & * = - ; > ,                                             ",
"      ' ) ! ~ { ] ^                                             ",
"    / ( _ : < [ } | 1                                           ",
"    + 2 3 4 5 [ 6 7 8                                           ",
"    9 0 a b c d e f g h i         . j k k l m n o p /           ",
"    q r s s s t u v < w x y @ @ z A B C C D E F G H I           ",
"    J K K K K L M N O < < P P P P < < < < < < C Q R J           ",
"              S T U V < < < < < < < < < < < < C W               ",
"                X Y Z ` O < < < < < < < < < < C  ...            ",
"                +.@.#.4 $.%.< < < < < C C < < < < &.i           ",
"                *.=.-.;.>.$.< < < ,.'.).!.~.{.< ].^./...        ",
"                (._.:.< <.[.C }.|.1.2.  3.4.5.6.7.8.9.0.        ",
"                  & a.G b.c.d.e.f.(.      g.h.i.j.k.l.m.        ",
"                    n.o.p.  q.r.s.          t.u.v.w.x.          ",
"                    n.y.z.  A.B.C.D.        E.F.G.H.I.          ",
"                  J.K.L.M.  . N.O.P.          Q.R.S.R.          ",
"                  T.U.V.W.  / X.Y.Z.*.                          ",
"                  `. +.++.    ++@+#+g.                          "};
