/* XPM */
static char * lenemy_5_xpm[] = {
"32 32 190 2",
"  	c #83924C",
". 	c #7D8B48",
"+ 	c #373618",
"@ 	c #7F8E4A",
"# 	c #686E38",
"$ 	c #454D25",
"% 	c #778545",
"& 	c #892615",
"* 	c #874824",
"= 	c #707039",
"- 	c #C05F2F",
"; 	c #676633",
"> 	c #5C6734",
", 	c #C22B1B",
"' 	c #616C37",
") 	c #6B3D1C",
"! 	c #B65A2C",
"~ 	c #7E8C49",
"{ 	c #9C200F",
"] 	c #A52C3D",
"^ 	c #00123A",
"/ 	c #C8674D",
"( 	c #BB5E3D",
"_ 	c #70763C",
": 	c #7C8A48",
"< 	c #411D3E",
"[ 	c #282A5C",
"} 	c #222A5C",
"| 	c #202A5C",
"1 	c #C36550",
"2 	c #452317",
"3 	c #67733C",
"4 	c #808F4A",
"5 	c #82914B",
"6 	c #778444",
"7 	c #181C16",
"8 	c #002154",
"9 	c #A95953",
"0 	c #7C4658",
"a 	c #00265C",
"b 	c #212A5D",
"c 	c #1B224C",
"d 	c #13193B",
"e 	c #4E5839",
"f 	c #65713A",
"g 	c #798746",
"h 	c #606B36",
"i 	c #3E1A08",
"j 	c #B65B32",
"k 	c #FE8142",
"l 	c #F87E44",
"m 	c #F17A46",
"n 	c #B15C52",
"o 	c #46325B",
"p 	c #212A5C",
"q 	c #212859",
"r 	c #1F2756",
"s 	c #2A313C",
"t 	c #2F3620",
"u 	c #6A763E",
"v 	c #727F41",
"w 	c #C16231",
"x 	c #C56231",
"y 	c #C46130",
"z 	c #E9753B",
"A 	c #FA7F43",
"B 	c #7A4558",
"C 	c #222A5D",
"D 	c #1A214B",
"E 	c #14193D",
"F 	c #141A3D",
"G 	c #636E38",
"H 	c #636F38",
"I 	c #7E8D49",
"J 	c #6A6734",
"K 	c #F47B3F",
"L 	c #B96051",
"M 	c #262B5C",
"N 	c #202757",
"O 	c #202857",
"P 	c #2D3322",
"Q 	c #2D3320",
"R 	c #47502C",
"S 	c #818F4B",
"T 	c #2C322F",
"U 	c #202858",
"V 	c #4C552A",
"W 	c #442D16",
"X 	c #ED773E",
"Y 	c #633C5A",
"Z 	c #352E5C",
"` 	c #181E46",
" .	c #232B5D",
"..	c #3F4722",
"+.	c #4F2514",
"@.	c #E86537",
"#.	c #774358",
"$.	c #FF8142",
"%.	c #44325B",
"&.	c #121738",
"*.	c #5A6533",
"=.	c #4D052A",
"-.	c #711B3D",
";.	c #50355B",
">.	c #844957",
",.	c #0E1330",
"'.	c #7D8C49",
").	c #2C1420",
"!.	c #38002C",
"~.	c #37002B",
"{.	c #0F0E29",
"].	c #45325C",
"^.	c #1F295A",
"/.	c #202859",
"(.	c #212853",
"_.	c #252B20",
":.	c #252B21",
"<.	c #252B31",
"[.	c #222A5B",
"}.	c #212959",
"|.	c #4A5329",
"1.	c #6A6935",
"2.	c #711323",
"3.	c #36002B",
"4.	c #4B502C",
"5.	c #492A1D",
"6.	c #EA7749",
"7.	c #B55A31",
"8.	c #49533A",
"9.	c #5E6935",
"0.	c #66723A",
"a.	c #788645",
"b.	c #25153B",
"c.	c #2E1C49",
"d.	c #262757",
"e.	c #424A24",
"f.	c #502912",
"g.	c #D22F1F",
"h.	c #463119",
"i.	c #684521",
"j.	c #FD8041",
"k.	c #E8753B",
"l.	c #697039",
"m.	c #82914C",
"n.	c #525B2E",
"o.	c #36002A",
"p.	c #370430",
"q.	c #242859",
"r.	c #21295B",
"s.	c #20274F",
"t.	c #6E7B40",
"u.	c #6A6A36",
"v.	c #BC291A",
"w.	c #9B301A",
"x.	c #758343",
"y.	c #975F2F",
"z.	c #AA5429",
"A.	c #586132",
"B.	c #330028",
"C.	c #310028",
"D.	c #86233B",
"E.	c #AA5A54",
"F.	c #00194B",
"G.	c #69753C",
"H.	c #9A2816",
"I.	c #BE2D1B",
"J.	c #68743B",
"K.	c #81904B",
"L.	c #59411E",
"M.	c #71753B",
"N.	c #83914C",
"O.	c #515A2E",
"P.	c #672D19",
"Q.	c #CE2E1E",
"R.	c #DB4D2B",
"S.	c #F47C44",
"T.	c #DD6F38",
"U.	c #737C3F",
"V.	c #738042",
"W.	c #6F5F30",
"X.	c #C42B1B",
"Y.	c #BA2719",
"Z.	c #984B24",
"`.	c #FF8343",
" +	c #8D4520",
".+	c #6C371A",
"++	c #CD4326",
"@+	c #5A5329",
"#+	c #533A1B",
"$+	c #767E41",
"                                                                ",
"                                                                ",
"                                                                ",
"                                                                ",
"                                                                ",
"                                                                ",
"                                                                ",
"                                                                ",
"                                                                ",
"                                                                ",
"                                                                ",
"                                                                ",
"                                                                ",
"            . + @ # $                                           ",
"          % & * = - ;                                           ",
"          > , ' ) ! @                                           ",
"        ~ { ] ^ / ( _                                           ",
"        : < [ } | 1 2 3 4 5                                     ",
"      6 7 8 9 0 a a b c d e f g                                 ",
"      h i j k l m n o p } q r s t u 4 4                         ",
"      v w x y y y z A B } } } C C D E F G H         I H         ",
"        . : : : : J K L M } } } } } } } N O P Q R S T U V       ",
"                    W X Y L Z } } } } } } } C C U F `  ...      ",
"                  5 +.@.#.$.%.} } } } } } } } } } } } &.~       ",
"                  *.=.-.;.>.p } } } } C C C C } } } } ,.        ",
"                '.).!.~.{.].;.^././.(._.:.:.<.[.} } } }.|.      ",
"                1.2.3.4.5.6.7.8.9.9.0.      a.b.c.d.} } e.      ",
"                f.g.h.  i.j.k.l.            m.n.o.p.q.r.s.t.    ",
"                u.v.w.x.4 y.$.z.S               A.B.C.D.E.F.G.  ",
"                '.H.I.J.  K.L.M.                N.O.P.Q.R.S.T.U.",
"                  V.0.                              W.X.Y.Z.`. +",
"                                                    .+++@+4 #+$+"};
