/* XPM */
static char * lenemy_6_xpm[] = {
"32 32 174 2",
"  	c #83924C",
". 	c #82914C",
"+ 	c #6D6633",
"@ 	c #333015",
"# 	c #81904B",
"$ 	c #6F4822",
"% 	c #5B6633",
"& 	c #606131",
"* 	c #9C2013",
"= 	c #6C6F38",
"- 	c #996030",
"; 	c #AD592C",
"> 	c #768344",
", 	c #616C37",
"' 	c #C62D1D",
") 	c #922228",
"! 	c #492D28",
"~ 	c #F07A47",
"{ 	c #824723",
"] 	c #7F8E4A",
"^ 	c #606B36",
"/ 	c #832A48",
"( 	c #0E2A5D",
"_ 	c #212A5D",
": 	c #00215D",
"< 	c #EF7943",
"[ 	c #596432",
"} 	c #778444",
"| 	c #161C3B",
"1 	c #2C2B5B",
"2 	c #6C3F59",
"3 	c #2E2C5C",
"4 	c #1F2A5C",
"5 	c #42315B",
"6 	c #1E2648",
"7 	c #2A3027",
"8 	c #7C8A47",
"9 	c #82914B",
"0 	c #20240E",
"a 	c #000000",
"b 	c #C5654A",
"c 	c #FF8341",
"d 	c #CF6A4D",
"e 	c #CA684E",
"f 	c #45325B",
"g 	c #11285D",
"h 	c #222A5C",
"i 	c #181E45",
"j 	c #525C33",
"k 	c #576130",
"l 	c #7F8D49",
"m 	c #5E4923",
"n 	c #EC773C",
"o 	c #F1793E",
"p 	c #F17A3E",
"q 	c #F87E43",
"r 	c #C9674E",
"s 	c #302D5C",
"t 	c #21295A",
"u 	c #20252F",
"v 	c #1B2022",
"w 	c #738043",
"x 	c #6A763F",
"y 	c #202523",
"z 	c #7E8D49",
"A 	c #82904B",
"B 	c #636E38",
"C 	c #636F38",
"D 	c #647039",
"E 	c #B15C2D",
"F 	c #FF8442",
"G 	c #613B5A",
"H 	c #222A5D",
"I 	c #232B5D",
"J 	c #192049",
"K 	c #171D44",
"L 	c #5A6533",
"M 	c #1B224D",
"N 	c #454D25",
"O 	c #7D8B48",
"P 	c #F17A45",
"Q 	c #00265C",
"R 	c #212959",
"S 	c #22295B",
"T 	c #2B3233",
"U 	c #818F4B",
"V 	c #794D27",
"W 	c #F17840",
"X 	c #B25D52",
"Y 	c #12285C",
"Z 	c #1B224C",
"` 	c #931D0D",
" .	c #6C3556",
"..	c #AB5A53",
"+.	c #EF7A46",
"@.	c #00275C",
"#.	c #748243",
"$.	c #606B37",
"%.	c #711221",
"&.	c #471D46",
"*.	c #834958",
"=.	c #46325B",
"-.	c #151B3F",
";.	c #151B40",
">.	c #1A214B",
",.	c #212B5D",
"'.	c #1F2655",
").	c #535D36",
"!.	c #4E5938",
"~.	c #0A1B42",
"{.	c #69753C",
"].	c #2D3118",
"^.	c #39002C",
"/.	c #360A35",
"(.	c #1F2A5D",
"_.	c #53365A",
":.	c #1E2858",
"<.	c #212857",
"[.	c #282E1F",
"}.	c #282D20",
"|.	c #2D3322",
"1.	c #29201E",
"2.	c #360733",
"3.	c #23295A",
"4.	c #8C4B54",
"5.	c #924E56",
"6.	c #464F26",
"7.	c #758243",
"8.	c #322222",
"9.	c #39002B",
"0.	c #2F2A58",
"a.	c #C06351",
"b.	c #BC5F32",
"c.	c #7A8846",
"d.	c #342922",
"e.	c #360B36",
"f.	c #252859",
"g.	c #551C48",
"h.	c #ED7442",
"i.	c #A86030",
"j.	c #7B8A47",
"k.	c #626E37",
"l.	c #4D0628",
"m.	c #390D22",
"n.	c #EA7641",
"o.	c #CC6633",
"p.	c #798444",
"q.	c #7E8C49",
"r.	c #262715",
"s.	c #262B1F",
"t.	c #2B2427",
"u.	c #380731",
"v.	c #C72A1D",
"w.	c #F5743C",
"x.	c #DD6F38",
"y.	c #728042",
"z.	c #7B5129",
"A.	c #CB2D1D",
"B.	c #D15C35",
"C.	c #FC8041",
"D.	c #9C6130",
"E.	c #5C6734",
"F.	c #74130B",
"G.	c #E75B30",
"H.	c #AA5F2F",
"I.	c #7B8947",
"J.	c #931E12",
"K.	c #CD2E1D",
"L.	c #B1562A",
"M.	c #72793E",
"N.	c #4F2912",
"O.	c #CC2D1D",
"P.	c #3C4320",
"Q.	c #5E6935",
"                                                                ",
"                                                                ",
"                                                                ",
"                                                                ",
"                                                                ",
"                                                                ",
"                                                                ",
"                                                                ",
"                                                                ",
"                                                                ",
"                                                                ",
"                                                                ",
"                                                                ",
"                                                                ",
"          . + @ # $ %                                           ",
"          & * = - ; >                                           ",
"        , ' ) ! ~ { ]                                           ",
"        ^ / ( _ : < [                                           ",
"      } | 1 2 3 4 5 6 7 8 9                                     ",
"      0 a b c d e f g h i j k l                                 ",
"      m n o p p p q r s h t t u v w 8 8 8 8 8 8     x y z       ",
"      A B C C C D E F G h h h H I J K K K K K K L [ M I N       ",
"                  O E P Q h h h h h h h h h h h R R S T U       ",
"                  # V W : X Y h h h h h h h h h h h Z >         ",
"                  ] `  ...+.@.h h h h h h h h h h h M #.# O     ",
"                  $.%.&.*.=.h h H H H h -.;.>.,.h h '.).!.~.{.  ",
"                  ].^./.(._.:.<.[.}.}.|.l O 1.2.3.h h R 4.5.6.  ",
"                7.8.9.0.a.b.^ ,             c.d.e.f.H _ g.h.i.j.",
"                k.l.m.n.o.p.                  q.r.s.t.u.v.w.x.y.",
"              # z.A.B.C.D.l                         c.E.F.G.H.I.",
"              l J.K.L.p E.                              M.N.l   ",
"              l J.O.P.Q.                                        "};
