/* XPM */
static char * lenemy_4_xpm[] = {
"32 32 179 2",
"  	c #83924C",
". 	c #7F8E4A",
"+ 	c #7E8C49",
"@ 	c #81904B",
"# 	c #7C8A47",
"$ 	c #8C3A1D",
"% 	c #424A23",
"& 	c #6D7A3F",
"* 	c #A55127",
"= 	c #6C793E",
"- 	c #82914C",
"; 	c #792E17",
"> 	c #7C180D",
", 	c #6F7B3F",
"' 	c #D36B36",
") 	c #674E26",
"! 	c #82914B",
"~ 	c #6C783D",
"{ 	c #AA2415",
"] 	c #721404",
"^ 	c #7D6A34",
"/ 	c #EF783C",
"( 	c #404822",
"_ 	c #434722",
": 	c #B62E38",
"< 	c #302857",
"[ 	c #3D2E57",
"} 	c #6A3E59",
"| 	c #D66D38",
"1 	c #6E7B3F",
"2 	c #818F4B",
"3 	c #7C8A48",
"4 	c #343B3C",
"5 	c #09295D",
"6 	c #00265C",
"7 	c #222A5C",
"8 	c #1E295C",
"9 	c #B65E4A",
"0 	c #00143A",
"a 	c #2E3539",
"b 	c #68743B",
"c 	c #67733B",
"d 	c #7A8846",
"e 	c #282E14",
"f 	c #080B20",
"g 	c #904E56",
"h 	c #ED7947",
"i 	c #3F305B",
"j 	c #3E305B",
"k 	c #1F2A5C",
"l 	c #21295B",
"m 	c #1F2654",
"n 	c #1F2655",
"o 	c #2E353C",
"p 	c #454E29",
"q 	c #82904B",
"r 	c #612D13",
"s 	c #A75228",
"t 	c #FF8342",
"u 	c #FF8243",
"v 	c #A65754",
"w 	c #613B5A",
"x 	c #212859",
"y 	c #111636",
"z 	c #242A37",
"A 	c #6B773D",
"B 	c #78733B",
"C 	c #7B3E1C",
"D 	c #793D1C",
"E 	c #783C1C",
"F 	c #FD8041",
"G 	c #F27B46",
"H 	c #322D5C",
"I 	c #222A5B",
"J 	c #1E2553",
"K 	c #394028",
"L 	c #65713A",
"M 	c #3E4624",
"N 	c #7A5B2D",
"O 	c #F57C3F",
"P 	c #924F56",
"Q 	c #1B295C",
"R 	c #0E285C",
"S 	c #1B224C",
"T 	c #1D2334",
"U 	c #12183A",
"V 	c #505A2D",
"W 	c #7A5A2C",
"X 	c #E87647",
"Y 	c #00245D",
"Z 	c #D16B4D",
"` 	c #1D295C",
" .	c #232A5C",
"..	c #1D2451",
"+.	c #1F2756",
"@.	c #21295A",
"#.	c #525C2D",
"$.	c #4B552A",
"%.	c #CE6540",
"&.	c #452659",
"*.	c #E0724A",
"=.	c #FF8341",
"-.	c #47335B",
";.	c #222B5D",
">.	c #151A25",
",.	c #798645",
"'.	c #380E1A",
").	c #A82731",
"!.	c #47305A",
"~.	c #8F4D56",
"{.	c #2E2C5C",
"].	c #1B224D",
"^.	c #6B773F",
"/.	c #372B24",
"(.	c #38002C",
"_.	c #2C1F4D",
":.	c #2E3442",
"<.	c #7B8947",
"[.	c #382F25",
"}.	c #212A5C",
"|.	c #141F48",
"1.	c #0F1331",
"2.	c #545F3A",
"3.	c #222314",
"4.	c #2C204F",
"5.	c #556030",
"6.	c #1F1814",
"7.	c #35002C",
"8.	c #2D1F4D",
"9.	c #683E59",
"0.	c #C76330",
"a.	c #778042",
"b.	c #292B16",
"c.	c #673245",
"d.	c #372E5C",
"e.	c #1D2224",
"f.	c #54140D",
"g.	c #B42624",
"h.	c #A52221",
"i.	c #00052A",
"j.	c #DA6F4A",
"k.	c #FF8343",
"l.	c #4E3819",
"m.	c #6E7A3F",
"n.	c #2D1625",
"o.	c #C05E37",
"p.	c #5E3A5A",
"q.	c #1C224E",
"r.	c #67743E",
"s.	c #788645",
"t.	c #A0301A",
"u.	c #D22F1E",
"v.	c #891B10",
"w.	c #6F4B24",
"x.	c #F77D40",
"y.	c #F17A3E",
"z.	c #090B03",
"A.	c #C32D1F",
"B.	c #CA643A",
"C.	c #E3733B",
"D.	c #626E38",
"E.	c #758343",
"F.	c #831C10",
"G.	c #755D2F",
"H.	c #808F4A",
"I.	c #8A6130",
"J.	c #9A4B24",
"K.	c #7C150C",
"L.	c #D33921",
"M.	c #FF8444",
"N.	c #5B3518",
"O.	c #7A8847",
"P.	c #9A1B11",
"Q.	c #FB7B3F",
"R.	c #C05F2F",
"S.	c #7C8947",
"T.	c #8D743C",
"U.	c #C08A47",
"V.	c #9E8042",
"                                                                ",
"                                                                ",
"                                                                ",
"                                                                ",
"                                                                ",
"                                                                ",
"                                                                ",
"                                                                ",
"                                                                ",
"                                                                ",
"                                                                ",
"              . .   + @                                         ",
"            # $ % & * =                                         ",
"          - ; > , ' ) !                                         ",
"          ~ { ] ^ / (                                           ",
"          _ : < [ } | 1 2                                       ",
"        3 4 5 6 7 8 9 0 a b c d                                 ",
"      ! e f g h i j k 7 l m n o p ! @                           ",
"      q r s t u t t v w 7 7 7 7 x y z A !                       ",
"        B C D D D E F G H 7 7 7 7 7 I J K L !     = M           ",
"                    N O P Q R 7 7 7 7 7 7 S T 1 A U I V         ",
"                    @ W X Y Z `  .7 7 7 7 7 7 ....+.@.#.        ",
"                      $.%.&.*.=.-.7 7 7 7 7 7 7 7 ;.>.          ",
"                      ,.'.).!.~.{.7 7 7 7 7 7 7 7 ].^.          ",
"                        d /.(._.7 7 7 +...7 7 7 I :.#           ",
"                        <.[.(._.}.|.1.2.3.4.7 7 @.5.            ",
"                        6.7.7.8.9.0.a.  b.c.d.;.e.              ",
"                        f.g.h.i.j.k.l.m.n.o.p.q.r.              ",
"                        s.t.u.v.w.x.y.z.A.B.C.D.                ",
"                          E.F.G.H.I.J.K.L.M.N.                  ",
"                            @ !   ! O.P.Q.R.S.                  ",
"                                    H.T.U.V.H.                  "};
