/* XPM */
static char * lower_border_xpm[] = {
"32 32 3 1",
" 	c #B0905D",
".	c #A6845D",
"+	c #BD9964",
"                                ",
"                    .           ",
"    ..  +               ..      ",
"    ..                  ..      ",
"            ..                + ",
"            ..                  ",
"                   ++           ",
"          +        ++           ",
"                                ",
"    ++                          ",
"    ++                          ",
"         ..                     ",
"         ..   ..          +     ",
"       .      ..                ",
"                                ",
"                                ",
"                                ",
"    .                           ",
"        ..          .           ",
"        ..                     .",
"              +  ..        ++   ",
"                 ..        ++   ",
"   ++                           ",
"   ++                           ",
"                                ",
"                         .      ",
"                   +            ",
"                                ",
"          +                     ",
"                   ..    ++     ",
"                   ..    ++     ",
"                                "};
