/* XPM */
static char * lplayer_2_xpm[] = {
"32 32 91 1",
" 	c #83924C",
".	c #000000",
"+	c #7B7C7A",
"@	c #7C846D",
"#	c #8E987B",
"$	c #B1B1B1",
"%	c #818181",
"&	c #A0A0A0",
"*	c #747474",
"=	c #A6A6A6",
"-	c #C1C1C1",
";	c #8D8D8D",
">	c #818579",
",	c #68743B",
"'	c #FFFFFF",
")	c #B6B6B6",
"!	c #333332",
"~	c #3A3B38",
"{	c #7F8379",
"]	c #C5C5C5",
"^	c #B3B3B3",
"/	c #F5F5F5",
"(	c #AAAAAA",
"_	c #171914",
":	c #3D3D3D",
"<	c #E0E0DF",
"[	c #9B9B9B",
"}	c #909090",
"|	c #9E9E9E",
"1	c #959595",
"2	c #565656",
"3	c #ECECEC",
"4	c #FEFEFE",
"5	c #E4E4E4",
"6	c #DEDEDE",
"7	c #484848",
"8	c #ACACAC",
"9	c #CDCDCD",
"0	c #4E4F4D",
"a	c #404040",
"b	c #424342",
"c	c #9A9A9A",
"d	c #D8D8D8",
"e	c #D1D1D1",
"f	c #FAFAFA",
"g	c #3C3C3B",
"h	c #656565",
"i	c #8B8B8B",
"j	c #4A4A4A",
"k	c #F8F8F7",
"l	c #070707",
"m	c #23271C",
"n	c #757772",
"o	c #BBBBBB",
"p	c #F6F6F6",
"q	c #9C9C9C",
"r	c #4B4B4B",
"s	c #F1F1F1",
"t	c #808F4A",
"u	c #69725B",
"v	c #474B41",
"w	c #FDFDFD",
"x	c #FCFCFC",
"y	c #535353",
"z	c #8F8F8F",
"A	c #989898",
"B	c #CBCBCB",
"C	c #D4D4D4",
"D	c #F8F8F8",
"E	c #7A7A7A",
"F	c #5F5F5F",
"G	c #505050",
"H	c #414140",
"I	c #B3B4B3",
"J	c #313230",
"K	c #313A1C",
"L	c #718053",
"M	c #888888",
"N	c #EBEBEB",
"O	c #848484",
"P	c #C4C4C4",
"Q	c #46532A",
"R	c #5F625A",
"S	c #E8EAE3",
"T	c #373737",
"U	c #6B773D",
"V	c #E9E9E9",
"W	c #555555",
"X	c #797979",
"Y	c #3E4925",
"Z	c #B7BBAD",
"                                ",
"                                ",
"                                ",
"                                ",
"                                ",
"                                ",
"                                ",
"                                ",
"          .+..@#                ",
"      . ...$.%&.                ",
"     ....*=..-.;>    ,.%...     ",
"     .''''')'!~&{  ,..']]]'.    ",
"    .'''''''''^/(_..%'''''':.   ",
"   .''''''''''''<[}]]''''''|.1..",
"   ..:''2.3'4''''55''''''''67890",
"   '.''a.bcde'''''''''f'''''ghij",
"   k'.lm  .n94'''o''''p'''''.q|r",
"   s'8. tuv.dw'xyz]]]%.x''w].AB.",
"   .&.  ...C'''D.]]]]../E''FGzH.",
"    .. ..'.'''IJKL....M..N]GOP..",
"      ..]9.''..    .Q y.9]]OO'. ",
"      .R].''S.        ...]]OOT. ",
"      ..]''...        ...]]OOTU ",
"       ..'..            ..]VOW. ",
"        ''.             ..]X... ",
"       ''.               .....Y ",
"      Z'.                 ...   ",
"     ....                       ",
"      ...                       ",
"                                ",
"                                ",
"                                "};
