/* XPM */
static char * lplayer_1_xpm[] = {
"32 32 96 2",
"  	c #83924C",
". 	c #000000",
"+ 	c #7B7C7A",
"@ 	c #7C846D",
"# 	c #8E987B",
"$ 	c #B1B1B1",
"% 	c #818181",
"& 	c #A0A0A0",
"* 	c #747474",
"= 	c #A6A6A6",
"- 	c #C1C1C1",
"; 	c #8D8D8D",
"> 	c #818579",
", 	c #68743B",
"' 	c #FFFFFF",
") 	c #B6B6B6",
"! 	c #333332",
"~ 	c #3A3B38",
"{ 	c #7F8379",
"] 	c #C5C5C5",
"^ 	c #B3B3B3",
"/ 	c #F5F5F5",
"( 	c #AAAAAA",
"_ 	c #171914",
": 	c #3D3D3D",
"< 	c #E0E0DF",
"[ 	c #9B9B9B",
"} 	c #909090",
"| 	c #9E9E9E",
"1 	c #959595",
"2 	c #565656",
"3 	c #ECECEC",
"4 	c #FEFEFE",
"5 	c #E4E4E4",
"6 	c #DEDEDE",
"7 	c #484848",
"8 	c #ACACAC",
"9 	c #CDCDCD",
"0 	c #4E4F4D",
"a 	c #404040",
"b 	c #424342",
"c 	c #9A9A9A",
"d 	c #D8D8D8",
"e 	c #D1D1D1",
"f 	c #FAFAFA",
"g 	c #3C3C3B",
"h 	c #656565",
"i 	c #8B8B8B",
"j 	c #4A4A4A",
"k 	c #F8F8F7",
"l 	c #070707",
"m 	c #23271C",
"n 	c #757772",
"o 	c #BBBBBB",
"p 	c #F6F6F6",
"q 	c #9C9C9C",
"r 	c #4B4B4B",
"s 	c #F1F1F1",
"t 	c #808A6F",
"u 	c #474B41",
"v 	c #FDFDFD",
"w 	c #FCFCFC",
"x 	c #535353",
"y 	c #8F8F8F",
"z 	c #989898",
"A 	c #CBCBCB",
"B 	c #303426",
"C 	c #5A5A5A",
"D 	c #F8F8F8",
"E 	c #7A7A7A",
"F 	c #5F5F5F",
"G 	c #505050",
"H 	c #414140",
"I 	c #929292",
"J 	c #B3B4B3",
"K 	c #313230",
"L 	c #313A1C",
"M 	c #718053",
"N 	c #888888",
"O 	c #EBEBEB",
"P 	c #848484",
"Q 	c #C4C4C4",
"R 	c #869171",
"S 	c #161813",
"T 	c #474E3B",
"U 	c #232A13",
"V 	c #46532A",
"W 	c #787C72",
"X 	c #A8A8A8",
"Y 	c #373737",
"Z 	c #ADB1A7",
"` 	c #6B773D",
" .	c #E9E9E9",
"..	c #555555",
"+.	c #797979",
"@.	c #3E4925",
"                                                                ",
"                                                                ",
"                                                                ",
"                                                                ",
"                                                                ",
"                                                                ",
"                                                                ",
"                                                                ",
"                    . + . . @ #                                 ",
"            .   . . . $ . % & .                                 ",
"          . . . . * = . . - . ; >         , . % . . .           ",
"          . ' ' ' ' ' ) ' ! ~ & {     , . . ' ] ] ] ' .         ",
"        . ' ' ' ' ' ' ' ' ' ^ / ( _ . . % ' ' ' ' ' ' : .       ",
"      . ' ' ' ' ' ' ' ' ' ' ' ' < [ } ] ] ' ' ' ' ' ' | . 1 . . ",
"      . . : ' ' 2 . 3 ' 4 ' ' ' ' 5 5 ' ' ' ' ' ' ' ' 6 7 8 9 0 ",
"      ' . ' ' a . b c d e ' ' ' ' ' ' ' ' ' f ' ' ' ' ' g h i j ",
"      k ' . l m     . n 9 4 ' ' ' o ' ' ' ' p ' ' ' ' ' . q | r ",
"      s ' 8 .     t u . d v ' w x y ] ] ] % . w ' ' v ] . z A . ",
"      . & .     B C . ' ' ' ' D . ] ] ] ] . . / E ' ' F G y H . ",
"        . .   I ] ' ' ' ' ' J K L M . . . . N . . O ] G P Q . . ",
"              R ] ' ' S T U .         . V   x . 9 ] ] P P ' .   ",
"              W ] ' X                       . . . ] ] P P Y .   ",
"              Z ] ' X . . .                 . . . ] ] P P Y `   ",
"              . . . ' ' ' . .                   . . ]  .P ...   ",
"                    ' - ' . .                   . . ] +.. . .   ",
"                                                  . . . . . @.  ",
"                                                    . . .       ",
"                                                                ",
"                                                                ",
"                                                                ",
"                                                                ",
"                                                                "};
