/* XPM */
static char * lplayer_3_xpm[] = {
"32 32 95 2",
"  	c #83924C",
". 	c #000000",
"+ 	c #7B7C7A",
"@ 	c #7C846D",
"# 	c #8E987B",
"$ 	c #B1B1B1",
"% 	c #818181",
"& 	c #A0A0A0",
"* 	c #747474",
"= 	c #A6A6A6",
"- 	c #C1C1C1",
"; 	c #8D8D8D",
"> 	c #818579",
", 	c #68743B",
"' 	c #FFFFFF",
") 	c #B6B6B6",
"! 	c #333332",
"~ 	c #3A3B38",
"{ 	c #7F8379",
"] 	c #C5C5C5",
"^ 	c #B3B3B3",
"/ 	c #F5F5F5",
"( 	c #AAAAAA",
"_ 	c #171914",
": 	c #3D3D3D",
"< 	c #E0E0DF",
"[ 	c #9B9B9B",
"} 	c #909090",
"| 	c #9E9E9E",
"1 	c #959595",
"2 	c #565656",
"3 	c #ECECEC",
"4 	c #FEFEFE",
"5 	c #E4E4E4",
"6 	c #DEDEDE",
"7 	c #484848",
"8 	c #ACACAC",
"9 	c #CDCDCD",
"0 	c #4E4F4D",
"a 	c #404040",
"b 	c #424342",
"c 	c #9A9A9A",
"d 	c #D8D8D8",
"e 	c #D1D1D1",
"f 	c #FAFAFA",
"g 	c #3C3C3B",
"h 	c #656565",
"i 	c #8B8B8B",
"j 	c #4A4A4A",
"k 	c #F8F8F7",
"l 	c #070707",
"m 	c #23271C",
"n 	c #757772",
"o 	c #BBBBBB",
"p 	c #7A7A7A",
"q 	c #767676",
"r 	c #9C9C9C",
"s 	c #4B4B4B",
"t 	c #F1F1F1",
"u 	c #808F4A",
"v 	c #69725B",
"w 	c #474B41",
"x 	c #FDFDFD",
"y 	c #FCFCFC",
"z 	c #535353",
"A 	c #8F8F8F",
"B 	c #989898",
"C 	c #CBCBCB",
"D 	c #D4D4D4",
"E 	c #F8F8F8",
"F 	c #F7F7F7",
"G 	c #323232",
"H 	c #414140",
"I 	c #B3B4B3",
"J 	c #313230",
"K 	c #313A1C",
"L 	c #718053",
"M 	c #EBEBEB",
"N 	c #3C3C3C",
"O 	c #C4C4C4",
"P 	c #AFB2AB",
"Q 	c #5F625A",
"R 	c #E8EAE3",
"S 	c #414141",
"T 	c #060606",
"U 	c #768444",
"V 	c #6E6E6E",
"W 	c #373737",
"X 	c #3C4320",
"Y 	c #E8E8E8",
"Z 	c #31352A",
"` 	c #54594A",
" .	c #64753E",
"..	c #262D14",
"+.	c #B7BBAD",
"                                                                ",
"                                                                ",
"                                                                ",
"                                                                ",
"                                                                ",
"                                                                ",
"                                                                ",
"                                                                ",
"                    . + . . @ #                                 ",
"            .   . . . $ . % & .                                 ",
"          . . . . * = . . - . ; >         , . % . . .           ",
"          . ' ' ' ' ' ) ' ! ~ & {     , . . ' ] ] ] ' .         ",
"        . ' ' ' ' ' ' ' ' ' ^ / ( _ . . % ' ' ' ' ' ' : .       ",
"      . ' ' ' ' ' ' ' ' ' ' ' ' < [ } ] ] ' ' ' ' ' ' | . 1 . . ",
"      . . : ' ' 2 . 3 ' 4 ' ' ' ' 5 5 ' ' ' ' ' ' ' ' 6 7 8 9 0 ",
"      ' . ' ' a . b c d e ' ' ' ' ' ' ' ' ' f ' ' ' ' ' g h i j ",
"      k ' . l m     . n 9 4 ' ' ' o ' ' ' p q ' ' ' ' ' . r | s ",
"      t ' 8 .   u v w . d x ' y z A ] ] ] . . y ' ' x } . B C . ",
"      . & .     . . . D ' ' ' E . ] ] ] | . . F 3 ' ' . G A H . ",
"        . .   . . ' . ' ' ' I J K L . . . . . ' t M . . N O . . ",
"            . . ] 9 . ' ' . .         . P ' ' ' 9 . . .   ' .   ",
"            . Q ] . ' ' R .           . ' . . . . . S T     .   ",
"            . . ] ' ' . . .       U . p ' . p V W . . .         ",
"              . . ' . .           X . . Y . . . Z `  .          ",
"                ' ' .               . . Y ..                    ",
"              ' ' .                 . . . .                     ",
"            +.' .                     . . .                     ",
"          . . . .                       . .                     ",
"            . . .                                               ",
"                                                                ",
"                                                                ",
"                                                                "};
