/* XPM */
static char * lplayer_on_coin_xpm[] = {
"32 32 287 2",
"  	c #83924C",
". 	c #849250",
"+ 	c #959376",
"@ 	c #8E9367",
"# 	c #000000",
"$ 	c #7B7C7A",
"% 	c #7C846D",
"& 	c #8E987B",
"* 	c #91936D",
"= 	c #ABA796",
"- 	c #B5B5A2",
"; 	c #B1B1B1",
"> 	c #818181",
", 	c #A0A0A0",
"' 	c #91936E",
") 	c #C1BEB3",
"! 	c #747474",
"~ 	c #A6A6A6",
"{ 	c #C1C1C1",
"] 	c #8D8D8D",
"^ 	c #818579",
"/ 	c #68743B",
"( 	c #939370",
"_ 	c #C7C5BB",
": 	c #FFFFFF",
"< 	c #B6B6B6",
"[ 	c #333332",
"} 	c #3A3B38",
"| 	c #7F8379",
"1 	c #C5C5C5",
"2 	c #92936F",
"3 	c #B3B3B3",
"4 	c #F5F5F5",
"5 	c #AAAAAA",
"6 	c #171914",
"7 	c #3D3D3D",
"8 	c #E0E0DF",
"9 	c #9B9B9B",
"0 	c #909090",
"a 	c #9E9E9E",
"b 	c #959595",
"c 	c #565656",
"d 	c #ECECEC",
"e 	c #FEFEFE",
"f 	c #E4E4E4",
"g 	c #DEDEDE",
"h 	c #484848",
"i 	c #ACACAC",
"j 	c #CDCDCD",
"k 	c #4E4F4D",
"l 	c #404040",
"m 	c #424342",
"n 	c #9A9A9A",
"o 	c #D8D8D8",
"p 	c #D1D1D1",
"q 	c #FAFAFA",
"r 	c #3C3C3B",
"s 	c #656565",
"t 	c #8B8B8B",
"u 	c #4A4A4A",
"v 	c #F8F8F7",
"w 	c #070707",
"x 	c #23271C",
"y 	c #9F9988",
"z 	c #F0F1ED",
"A 	c #757772",
"B 	c #BBBBBB",
"C 	c #F6F6F6",
"D 	c #EDEFE9",
"E 	c #9C9C9C",
"F 	c #4B4B4B",
"G 	c #F1F1F1",
"H 	c #919071",
"I 	c #69725B",
"J 	c #474B41",
"K 	c #FDFDFD",
"L 	c #FCFCFC",
"M 	c #535353",
"N 	c #8F8F8F",
"O 	c #ECEDE9",
"P 	c #3D4323",
"Q 	c #989898",
"R 	c #CBCBCB",
"S 	c #D4D4D4",
"T 	c #F8F8F8",
"U 	c #7A7A7A",
"V 	c #969776",
"W 	c #9B9580",
"X 	c #99947E",
"Y 	c #414140",
"Z 	c #969377",
"` 	c #9FA981",
" .	c #B3B4B3",
"..	c #313230",
"+.	c #6C7161",
"@.	c #7C895E",
"#.	c #888888",
"$.	c #EBEBEB",
"%.	c #949473",
"&.	c #B2B39F",
"*.	c #B7BDA5",
"=.	c #BFC0BC",
"-.	c #949373",
";.	c #C4C4B6",
">.	c #F2F3EF",
",.	c #AEA99B",
"'.	c #E2E4DB",
").	c #DFE2D8",
"!.	c #C0C6AF",
"~.	c #46532A",
"{.	c #ADAA9F",
"].	c #C9CABD",
"^.	c #CFD3C4",
"/.	c #DADDD1",
"(.	c #90936B",
"_.	c #C0BDB2",
":.	c #E3E4DC",
"<.	c #5F625A",
"[.	c #E8EAE3",
"}.	c #99947D",
"|.	c #959375",
"1.	c #DCDDD5",
"2.	c #E9EAE4",
"3.	c #E7E9E2",
"4.	c #A5A393",
"5.	c #CFCEC4",
"6.	c #DADDD2",
"7.	c #748147",
"8.	c #8D9364",
"9.	c #E8E9E3",
"0.	c #8C9362",
"a.	c #9A947E",
"b.	c #CDD0C1",
"c.	c #F2F3F0",
"d.	c #9EA097",
"e.	c #A3A090",
"f.	c #C7C7BA",
"g.	c #758147",
"h.	c #6B773D",
"i.	c #BCB8AC",
"j.	c #E5E7DF",
"k.	c #CBD0BF",
"l.	c #939F6C",
"m.	c #9C9681",
"n.	c #ABA697",
"o.	c #BEBBB0",
"p.	c #EEEFEA",
"q.	c #A0A494",
"r.	c #99957E",
"s.	c #CDCCC2",
"t.	c #C5CAB7",
"u.	c #555555",
"v.	c #81904B",
"w.	c #8A9161",
"x.	c #E1E3DA",
"y.	c #7F8F4B",
"z.	c #A7A590",
"A.	c #E6E8E1",
"B.	c #BFC5AE",
"C.	c #8B995D",
"D.	c #98947B",
"E.	c #C6C5BB",
"F.	c #ECEDE8",
"G.	c #ECECEA",
"H.	c #B3ADA3",
"I.	c #D2D2C9",
"J.	c #383F1D",
"K.	c #82914C",
"L.	c #788848",
"M.	c #8F996F",
"N.	c #D0CEC7",
"O.	c #D6D9CC",
"P.	c #768748",
"Q.	c #89925C",
"R.	c #9A947F",
"S.	c #A19C88",
"T.	c #B2AEA2",
"U.	c #D8DBCF",
"V.	c #9B9780",
"W.	c #979B76",
"X.	c #B2ACA1",
"Y.	c #DEDDD8",
"Z.	c #C6CABB",
"`.	c #101406",
" +	c #3E4925",
".+	c #7A8A49",
"++	c #728349",
"@+	c #788652",
"#+	c #708248",
"$+	c #B3B6AC",
"%+	c #B0B09D",
"&+	c #C5CBB7",
"*+	c #E3E6DD",
"=+	c #8F936A",
"-+	c #97937A",
";+	c #9B9481",
">+	c #738446",
",+	c #7D8D4A",
"'+	c #98947C",
")+	c #A8B18E",
"!+	c #C2C3B5",
"~+	c #D5D8CB",
"{+	c #81914B",
"]+	c #7D8C4A",
"^+	c #7B8B49",
"/+	c #939371",
"(+	c #9B9480",
"_+	c #99997A",
":+	c #CCCCC1",
"<+	c #E0E3D9",
"[+	c #B1B99C",
"}+	c #859253",
"|+	c #898E4E",
"1+	c #768747",
"2+	c #788948",
"3+	c #808F4B",
"4+	c #ACAB98",
"5+	c #CFD2C4",
"6+	c #CACFBD",
"7+	c #9C9781",
"8+	c #BCBDAD",
"9+	c #8C8C4F",
"0+	c #86904D",
"a+	c #798A49",
"b+	c #728446",
"c+	c #748547",
"d+	c #748647",
"e+	c #979379",
"f+	c #ACAA98",
"g+	c #B6BAA3",
"h+	c #DBDFD3",
"i+	c #9C9682",
"j+	c #B9B7A9",
"k+	c #8E8B50",
"l+	c #8D8B50",
"m+	c #918952",
"n+	c #8C8C50",
"o+	c #778748",
"p+	c #728346",
"q+	c #758647",
"r+	c #8E9368",
"s+	c #A2A189",
"t+	c #BAB9AA",
"u+	c #D2D2C7",
"v+	c #D3D6C8",
"w+	c #8A8D4F",
"x+	c #8F8A51",
"y+	c #988355",
"z+	c #958653",
"A+	c #918951",
"B+	c #85904D",
"C+	c #979378",
"D+	c #98937A",
"E+	c #9F9888",
"F+	c #C9C9BE",
"G+	c #888F4E",
"H+	c #928852",
"I+	c #948753",
"J+	c #8D8C50",
"K+	c #918852",
"L+	c #7E8E4A",
"M+	c #798948",
"N+	c #718346",
"O+	c #778848",
"P+	c #8B9361",
"Q+	c #99947C",
"R+	c #D6D6CE",
"S+	c #DDE0D6",
"T+	c #84914D",
"U+	c #958553",
"V+	c #8B8D4F",
"W+	c #84924C",
"X+	c #7C8C49",
"Y+	c #C9CABE",
"Z+	c #878F4E",
"`+	c #7E8D4A",
" @	c #7F8A57",
".@	c #D1D1C8",
"+@	c #C1C7B1",
"@@	c #85914D",
"#@	c #74834A",
"$@	c #8A9473",
"%@	c #798957",
"&@	c #6F8146",
"*@	c #708145",
"=@	c #6D7F45",
"-@	c #6C7E45",
"                                                                ",
"                                                                ",
"      . + @         # $ # # % &                                 ",
"      * = - #   # # # ; # > , #                                 ",
"      ' ) # # # # ! ~ # # { # ] ^         / # > # # #           ",
"      ( _ # : : : : : < : [ } , |     / # # : 1 1 1 : #         ",
"      2 # : : : : : : : : : 3 4 5 6 # # > : : : : : : 7 #       ",
"      # : : : : : : : : : : : : 8 9 0 1 1 : : : : : : a # b # # ",
"      # # 7 : : c # d : e : : : : f f : : : : : : : : g h i j k ",
"      : # : : l # m n o p : : : : : : : : : q : : : : : r s t u ",
"      v : # w x y z # A j e : : : B : : : : C : : : : D # E a F ",
"      G : i #   H I J # o K : L M N 1 1 1 > # L : : O 2 P Q R # ",
"      # , #     # # # S : : : T # 1 1 1 1 # # 4 U : V W X N Y # ",
"      Z # # ` # # : # : : :  ...+.@.# # # # #.# # $.%.&.*.=.# # ",
"      -.;.>.# # 1 j # : : # # ,.'.).!.# ~.  M # j 1 {.].^./.#   ",
"      (._.:.# <.1 # : : [.#   }.|.1.2.3.    # # # 1 4.5.6.7.#   ",
"      8._.9.# # 1 : : # # #     0.a.}.b.c.[.d.# # 1 e.f.^.g.h.  ",
"      8.i.j.  # # : # # k.l.        + m.n.o.p.6.q.# r.s.t.u.#   ",
"    v.w._.x.y.y.: : #   z.A.B.C.        * D.D.E.F.G.H.I.B.J.#   ",
"  K.L.M.N.O.P.: : # Q.  R.S.T.U.B.          ( -.V.W.X.Y.Z.`. +  ",
"  K..+++@+#+$+: #         Q.R.%+&+*+            =+-+;+I.k.      ",
"    y.P.>+# # # # ,+          2 '+)+k.^.          2 R.!+~+      ",
"        {+  # # # ,+]+^+]+      /+(+_+:+<+)+[+    }+D.!+~+      ",
"        |+      y.1+2+K.3+{+{+    }+@ Z 4+5+x.6+[+}+7+8+~+      ",
"        9+0+        a+b+c+d+c+y.      Q.e+D.f+g+h+b.i+j+~+      ",
"      k+l+m+n+m+        o+p+q+c+o+]+      * r++ s+t+X.u+v+      ",
"      w+k+x+y+z+A+|+B+    {+.+q+c+b+^+        Q.C+D+E+F+v+      ",
"      G+n+H+I+x+J+m+K+l+      L+M+>+N+N+O+L+      P+Q+R+S+      ",
"        G+T+k+|+x+A+U+I+I+V+|+W+  X+^+P.p+q+K.    }+D.Y+v+      ",
"        G+T+  J+|+  |+k+K+0+A+Z+      {+y.1+1+^+`+ @=+.@+@      ",
"              B+|+V+@@  l+G+                y.X+c+>+#@$@%@&@v.  ",
"                  @@    |+                        ^+*@=@-@L.    "};
