/* XPM */
static char * lplayer_4_xpm[] = {
"32 32 105 2",
"  	c #83924C",
". 	c #000000",
"+ 	c #7B7C7A",
"@ 	c #7C846D",
"# 	c #8E987B",
"$ 	c #B1B1B1",
"% 	c #818181",
"& 	c #A0A0A0",
"* 	c #747474",
"= 	c #A6A6A6",
"- 	c #C1C1C1",
"; 	c #8D8D8D",
"> 	c #818579",
", 	c #FFFFFF",
"' 	c #B6B6B6",
") 	c #333332",
"! 	c #3A3B38",
"~ 	c #7F8379",
"{ 	c #1C2014",
"] 	c #141809",
"^ 	c #B3B3B3",
"/ 	c #F5F5F5",
"( 	c #AAAAAA",
"_ 	c #171914",
": 	c #757574",
"< 	c #C5C5C5",
"[ 	c #E0E0DF",
"} 	c #565656",
"| 	c #797979",
"1 	c #CCCCCC",
"2 	c #959595",
"3 	c #3D3D3D",
"4 	c #ECECEC",
"5 	c #FEFEFE",
"6 	c #484848",
"7 	c #ACACAC",
"8 	c #CDCDCD",
"9 	c #4E4F4D",
"0 	c #404040",
"a 	c #424342",
"b 	c #9A9A9A",
"c 	c #D8D8D8",
"d 	c #D1D1D1",
"e 	c #FAFAFA",
"f 	c #3C3C3B",
"g 	c #656565",
"h 	c #8B8B8B",
"i 	c #4A4A4A",
"j 	c #F8F8F7",
"k 	c #070707",
"l 	c #23271C",
"m 	c #757772",
"n 	c #BBBBBB",
"o 	c #F6F6F6",
"p 	c #D2D2D2",
"q 	c #9C9C9C",
"r 	c #9E9E9E",
"s 	c #4B4B4B",
"t 	c #F1F1F1",
"u 	c #808A6F",
"v 	c #474B41",
"w 	c #FDFDFD",
"x 	c #FCFCFC",
"y 	c #535353",
"z 	c #5F5F5F",
"A 	c #989898",
"B 	c #CBCBCB",
"C 	c #303426",
"D 	c #5A5A5A",
"E 	c #F8F8F8",
"F 	c #4E4E4E",
"G 	c #E4E4E4",
"H 	c #8F8F8F",
"I 	c #414140",
"J 	c #929292",
"K 	c #B3B4B3",
"L 	c #313230",
"M 	c #5D5D5D",
"N 	c #888888",
"O 	c #353535",
"P 	c #C4C4C4",
"Q 	c #869171",
"R 	c #161813",
"S 	c #474E3B",
"T 	c #232A13",
"U 	c #1E2314",
"V 	c #24291B",
"W 	c #E1E1E1",
"X 	c #898989",
"Y 	c #787C72",
"Z 	c #A8A8A8",
"` 	c #949494",
" .	c #979797",
"..	c #ADB1A7",
"+.	c #474845",
"@.	c #919290",
"#.	c #1B1E16",
"$.	c #3E3E3D",
"%.	c #868686",
"&.	c #434343",
"*.	c #E8E8E8",
"=.	c #252525",
"-.	c #010100",
";.	c #1E1F1D",
">.	c #010201",
"                                                                ",
"                                                                ",
"                                                                ",
"                                                                ",
"                                                                ",
"                                                                ",
"                                                                ",
"                                                                ",
"                    . + . . @ #                                 ",
"            .   . . . $ . % & .                                 ",
"          . . . . * = . . - . ; >                               ",
"          . , , , , , ' , ) ! & ~             . { ]             ",
"        . , , , , , , , , , ^ / ( _     . : . . < . .   .       ",
"      . , , , , , , , , , , , , [ } . . | < < < < 1 . . . 2 . . ",
"      . . 3 , , } . 4 , 5 , , , , , , , , , , , , , , < 6 7 8 9 ",
"      , . , , 0 . a b c d , , , , , , , , , e , , , / < f g h i ",
"      j , . k l     . m 8 5 , , , n , , , , o , , , p < . q r s ",
"      t , 7 .     u v . c w , x y } w , , , z x , , / < . A B . ",
"      . & .     C D . , , , , E . , , , , & F / , , G < . H I . ",
"        . .   J < , , , , , K L . , , , M . N w , / p . O P . . ",
"              Q < , , R S T .     . U . . V y 5 , W . . X $ .   ",
"              Y < , Z                       . e , Z h . `  ..   ",
"              ..< , Z . . .                 . +.e , ( . @.#.    ",
"              . . . , , , . .                   . , Z < .       ",
"                    , - , . .                 . , , . $.        ",
"                                            . %., &.O           ",
"                                          . . , *.=.            ",
"                                        . -., ;.>..             ",
"                                        . . .                   ",
"                                                                ",
"                                                                ",
"                                                                "};
