/* XPM */
static char * opened_exit_xpm[] = {
"32 32 225 2",
"  	c #83924C",
". 	c #B9C0A7",
"+ 	c #E0E3DA",
"@ 	c #AAB190",
"# 	c #859350",
"$ 	c #C3C9B4",
"% 	c #FDFDFD",
"& 	c #A5AE89",
"* 	c #DDE0D6",
"= 	c #E6E7E1",
"- 	c #A5A78C",
"; 	c #84924C",
"> 	c #859451",
", 	c #F5F6F3",
"' 	c #FFFFFF",
") 	c #ACB494",
"! 	c #F3F4F1",
"~ 	c #F5F3F3",
"{ 	c #ADA99A",
"] 	c #E8E4E0",
"^ 	c #A20000",
"/ 	c #E7E7E1",
"( 	c #E6DFDB",
"_ 	c #EEEFEA",
": 	c #EFF0EC",
"< 	c #C8A9A5",
"[ 	c #E7E3DE",
"} 	c #A30000",
"| 	c #F3F2EF",
"1 	c #A10000",
"2 	c #CFD3C3",
"3 	c #F8F9F7",
"4 	c #EAE8E7",
"5 	c #A7A290",
"6 	c #849250",
"7 	c #EFF0EB",
"8 	c #F3F2F1",
"9 	c #A9A193",
"0 	c #E0DDD6",
"a 	c #EBE1E0",
"b 	c #EFE6E6",
"c 	c #FEFEFE",
"d 	c #D7BBBB",
"e 	c #F1E8E8",
"f 	c #F7F2F2",
"g 	c #FEFEFD",
"h 	c #F9F9F8",
"i 	c #EBECE6",
"j 	c #DAD3CB",
"k 	c #F1F2EE",
"l 	c #D8DBCF",
"m 	c #FAFAF9",
"n 	c #FAF9F9",
"o 	c #9A947F",
"p 	c #F6F7F5",
"q 	c #A5A08D",
"r 	c #EBE7E3",
"s 	c #F9FAF8",
"t 	c #F8F8F6",
"u 	c #FBFCFA",
"v 	c #FBFAF9",
"w 	c #FCFCFB",
"x 	c #F1EDEB",
"y 	c #FCFCFC",
"z 	c #DFCCCB",
"A 	c #F1E9E9",
"B 	c #E5E7DF",
"C 	c #859251",
"D 	c #99947C",
"E 	c #E4E0DB",
"F 	c #FBFBFA",
"G 	c #D3B4B4",
"H 	c #DAC1C1",
"I 	c #F0E8E7",
"J 	c #F7F7F5",
"K 	c #959376",
"L 	c #859250",
"M 	c #A2A089",
"N 	c #E6E2DE",
"O 	c #F2ECEB",
"P 	c #EEEAE7",
"Q 	c #F6F6F4",
"R 	c #9A947E",
"S 	c #859252",
"T 	c #FDFDFC",
"U 	c #A0A086",
"V 	c #F0ECEA",
"W 	c #F6F7F4",
"X 	c #C39393",
"Y 	c #F4F1F0",
"Z 	c #F5F3F1",
"` 	c #F4F0EF",
" .	c #E1DAD5",
"..	c #F2F1F0",
"+.	c #E4E0DA",
"@.	c #E5E1DC",
"#.	c #F0F1ED",
"$.	c #F3F4F0",
"%.	c #DBC7C5",
"&.	c #F2EEEC",
"*.	c #E5DDD9",
"=.	c #EDEEE9",
"-.	c #F4F5F2",
";.	c #84934E",
">.	c #92936F",
",.	c #EDECEA",
"'.	c #9D9483",
").	c #84934F",
"!.	c #F1F2ED",
"~.	c #E8E8E2",
"{.	c #9B9481",
"].	c #E7E8E1",
"^.	c #949373",
"/.	c #84924E",
"(.	c #E9EBE5",
"_.	c #E0DDDB",
":.	c #9F9588",
"<.	c #879255",
"[.	c #E6E8E0",
"}.	c #A69D92",
"|.	c #E8EAE4",
"1.	c #F9F8F8",
"2.	c #869354",
"3.	c #DBDED2",
"4.	c #E6E3E1",
"5.	c #ABA398",
"6.	c #E7E7E2",
"7.	c #969378",
"8.	c #E7E9E2",
"9.	c #B4B0A3",
"0.	c #EFEEEB",
"a.	c #ECEBEA",
"b.	c #99947D",
"c.	c #859253",
"d.	c #AFAA9C",
"e.	c #F3F3F1",
"f.	c #969377",
"g.	c #959574",
"h.	c #ECEDE8",
"i.	c #959375",
"j.	c #949473",
"k.	c #E3E5DE",
"l.	c #979379",
"m.	c #879256",
"n.	c #959475",
"o.	c #F6F6F5",
"p.	c #F7F6F6",
"q.	c #939370",
"r.	c #F4F3F1",
"s.	c #F2F3EF",
"t.	c #91936D",
"u.	c #97947A",
"v.	c #979378",
"w.	c #EAEAE6",
"x.	c #869253",
"y.	c #949374",
"z.	c #EEF0EB",
"A.	c #A2998A",
"B.	c #91936E",
"C.	c #F4F2F2",
"D.	c #ADA79B",
"E.	c #85904D",
"F.	c #898E4E",
"G.	c #85914D",
"H.	c #939372",
"I.	c #A69E90",
"J.	c #869255",
"K.	c #8E8B50",
"L.	c #988354",
"M.	c #968554",
"N.	c #958653",
"O.	c #8D8C50",
"P.	c #F9FAF9",
"Q.	c #959374",
"R.	c #978454",
"S.	c #998255",
"T.	c #938752",
"U.	c #918952",
"V.	c #888F4E",
"W.	c #E4E2DF",
"X.	c #778748",
"Y.	c #7E8E4A",
"Z.	c #948753",
"`.	c #958553",
" +	c #948653",
".+	c #918951",
"++	c #928852",
"@+	c #81904B",
"#+	c #778848",
"$+	c #6D7F45",
"%+	c #EFF0ED",
"&+	c #ACA49B",
"*+	c #738447",
"=+	c #748447",
"-+	c #B7BEA6",
";+	c #DCDED5",
">+	c #89915E",
",+	c #708145",
"'+	c #8E8B51",
")+	c #9A8155",
"!+	c #998355",
"~+	c #6F8046",
"{+	c #A8B09A",
"]+	c #EAECE9",
"^+	c #99A389",
"/+	c #718347",
"(+	c #7E8D4A",
"_+	c #708246",
":+	c #6F8145",
"<+	c #718246",
"[+	c #6B7D45",
"}+	c #768747",
"|+	c #7B8B49",
"1+	c #8F8A51",
"2+	c #8B8D4F",
"3+	c #788848",
"4+	c #748547",
"5+	c #697C44",
"6+	c #6B7D4A",
"7+	c #6C7E44",
"8+	c #738446",
"9+	c #768648",
"0+	c #7C8C4A",
"a+	c #798949",
"b+	c #6F8146",
"                                                                ",
"    . + @                                           # $ % &     ",
"    * = -         ;                                 > , ' )     ",
"    ! ~ { ] ^ ^ ^ ^ / ( ^ _ : < ^ [ } | ^ ^ ^ ^ ^ 1 2 3 4 5 6   ",
"    7 8 9 0 } a b c ' ' d ^ e ^ c f } g h i ^ j k 3 l m n o 6   ",
"    p ' q r } s t u % % v ^ ^ ^ w x } % y z ^ A , y B p ' o C   ",
"    s ' D E ^ ^ ^ ^ F w y G } w % H } ' ' ' ^ I % c J ' ' K L   ",
"    w ' M N } ' ' w g y O ^ ^ ^ , P } s Q t ^ A ' c c ' ' R S   ",
"    T ' U V } W c ' % ' ^ X Y ^ Z ` } h % T ^  .c ' w ' ..o C   ",
"    u ' U +.^ ^ ^ ^ @.^ } #.$.%.1 &.} $._ i ^ *.=.7 F -.w R L   ",
"  ;.W ' >.6                                           $.,.'.C   ",
"  ).!.' >.C                                         ;.~.c {.S   ",
"    ].' ^./.                                          (._.:.<.  ",
"    [.% }.                                            |.1.o 2.  ",
"    3.4.5.                                            6.1.7.S   ",
"    8.% 9.                                            0.a.b.c.  ",
"    + 1.d.                                            e.w f.c.  ",
"    #.' g.                                            h.' i.c.  ",
"    ' ' j.                                            k.' l.m.  ",
"    ' ' n.                                            o.p.R m.  ",
"    ' ' q.                                            r.p.i.c.  ",
"    s.' t.c.                                          s.w u.    ",
"    k ' v.                                            w...D x.  ",
"    [.' K                                             3 ' y.    ",
"    z.c A.c.                                          m w B.    ",
"    3 C.D.c.                  E.E.E.E.E.F.G.          m ..H.    ",
"    s.' I.J.            K.L.M.N.M.O.O.O.F.            P.' q.    ",
"    k ' Q.x.    F.K.O.O.R.S.M.N.T.M.U.U.U.V.          Q W.q.    ",
"  X.i ' i.Y.    U.Z.`. + +M.R.N.T..+++L.K.O.E.  @+#+$+%+1.&+*+  ",
"*+=+-+;+>+,+*+  E.E.V.'+K.L.)+S.!+`.Z.'+`.K.U.  X.~+$+{+]+^+/+(+",
"  _+:+<+[+}+|+      O.U.T.'+++1+2+O.U.'+V.F.      3+4+5+6+7+*+  ",
"  @+8+9+0+                E.E.F.O.O.  E.            a+,+b+0+    "};
