/* XPM */
static char * player_on_coin_xpm[] = {
"32 32 292 2",
"  	c #83924C",
". 	c #849250",
"+ 	c #959376",
"@ 	c #8E9367",
"# 	c #8E987B",
"$ 	c #7C846D",
"% 	c #000000",
"& 	c #7B7C7A",
"* 	c #91936D",
"= 	c #ABA796",
"- 	c #B5B5A2",
"; 	c #A0A0A0",
"> 	c #818181",
", 	c #B1B1B1",
"' 	c #91936E",
") 	c #C1BEB3",
"! 	c #DCDFD4",
"~ 	c #818579",
"{ 	c #8D8D8D",
"] 	c #C1C1C1",
"^ 	c #A6A6A6",
"/ 	c #747474",
"( 	c #939370",
"_ 	c #C7C5BB",
": 	c #7F8379",
"< 	c #3A3B38",
"[ 	c #333332",
"} 	c #FFFFFF",
"| 	c #B6B6B6",
"1 	c #92936F",
"2 	c #D0CFC7",
"3 	c #D0D5C5",
"4 	c #768444",
"5 	c #292F14",
"6 	c #5E6A35",
"7 	c #171914",
"8 	c #AAAAAA",
"9 	c #F5F5F5",
"0 	c #B3B3B3",
"a 	c #DBD9D3",
"b 	c #E3E5DD",
"c 	c #ACB494",
"d 	c #8C995E",
"e 	c #242911",
"f 	c #565656",
"g 	c #E0E0DF",
"h 	c #D0CFC8",
"i 	c #ECEDE7",
"j 	c #F4F3F1",
"k 	c #E8E8E3",
"l 	c #B1B99C",
"m 	c #3C4320",
"n 	c #FEFEFE",
"o 	c #ECECEC",
"p 	c #3D3D3D",
"q 	c #D2D0C9",
"r 	c #CFD0C6",
"s 	c #BCBBAD",
"t 	c #E0E0DB",
"u 	c #F6F6F4",
"v 	c #E1E3DA",
"w 	c #646464",
"x 	c #D1D1D1",
"y 	c #D8D8D8",
"z 	c #9A9A9A",
"A 	c #424342",
"B 	c #404040",
"C 	c #CCC9C2",
"D 	c #D5D8CB",
"E 	c #89925C",
"F 	c #98947B",
"G 	c #9F9988",
"H 	c #737471",
"I 	c #FAFAFA",
"J 	c #BBBBBB",
"K 	c #CDCDCD",
"L 	c #757772",
"M 	c #23271C",
"N 	c #070707",
"O 	c #F8F8F7",
"P 	c #8F936A",
"Q 	c #CAC8BF",
"R 	c #DBDFD3",
"S 	c #141809",
"T 	c #1C2014",
"U 	c #E8E8E8",
"V 	c #757575",
"W 	c #535353",
"X 	c #FCFCFC",
"Y 	c #FDFDFD",
"Z 	c #474B41",
"` 	c #808A6F",
" .	c #ACACAC",
"..	c #F1F1F1",
"+.	c #CAC6BF",
"@.	c #C5C5C5",
"#.	c #DDDCDA",
"$.	c #030401",
"%.	c #F8F8F8",
"&.	c #515151",
"*.	c #11130C",
"=.	c #646051",
"-.	c #959595",
";.	c #CCCCCC",
">.	c #DEDEDE",
",.	c #5F605E",
"'.	c #313230",
").	c #B3B4B3",
"!.	c #BABABA",
"~.	c #929292",
"{.	c #B2B39F",
"].	c #B8BDA5",
"^.	c #4E4F4D",
"/.	c #484848",
"(.	c #D3D3D3",
"_.	c #E2E4DB",
":.	c #232A13",
"<.	c #474E3B",
"[.	c #161813",
"}.	c #6A7359",
"|.	c #859253",
"1.	c #99947D",
"2.	c #C9CABD",
"3.	c #CFD3C4",
"4.	c #4A4A4A",
"5.	c #8B8B8B",
"6.	c #656565",
"7.	c #3C3C3B",
"8.	c #7B7960",
"9.	c #DCDDD5",
"0.	c #E9EAE4",
"a.	c #E7E9E2",
"b.	c #CBD0BF",
"c.	c #A8A8A8",
"d.	c #5F625A",
"e.	c #979379",
"f.	c #CFCEC4",
"g.	c #DADDD2",
"h.	c #4B4B4B",
"i.	c #9E9E9E",
"j.	c #9C9C9C",
"k.	c #D2D2D2",
"l.	c #BCBCBC",
"m.	c #B5B5B5",
"n.	c #8B9065",
"o.	c #9A947E",
"p.	c #CDD0C1",
"q.	c #F2F3F0",
"r.	c #E8EAE3",
"s.	c #D8DBCF",
"t.	c #ADB1A7",
"u.	c #C7C7BA",
"v.	c #CBCBCB",
"w.	c #989898",
"x.	c #B9B9B9",
"y.	c #444444",
"z.	c #C0C0C0",
"A.	c #1F230E",
"B.	c #9C9681",
"C.	c #ABA697",
"D.	c #BEBBB0",
"E.	c #EEEFEA",
"F.	c #C5CBB7",
"G.	c #CDCCC2",
"H.	c #414140",
"I.	c #8F8F8F",
"J.	c #E4E4E4",
"K.	c #4E4E4E",
"L.	c #9EA09A",
"M.	c #BFC5AE",
"N.	c #939F6C",
"O.	c #68743B",
"P.	c #C6C5BB",
"Q.	c #ECEDE8",
"R.	c #F6F7F5",
"S.	c #B2ACA1",
"T.	c #D2D2C9",
"U.	c #C4C4C4",
"V.	c #353535",
"W.	c #888888",
"X.	c #8B9066",
"Y.	c #9A947F",
"Z.	c #A19C88",
"`.	c #B2AEA2",
" +	c #949373",
".+	c #9B9780",
"++	c #979B76",
"@+	c #DEDDD8",
"#+	c #898989",
"$+	c #E1E1E1",
"%+	c #24291B",
"&+	c #B0B09D",
"*+	c #E3E6DD",
"=+	c #97937A",
"-+	c #9B9481",
";+	c #979797",
">+	c #949494",
",+	c #98947C",
"'+	c #A8B18E",
")+	c #C2C3B5",
"!+	c #1B1E16",
"~+	c #919290",
"{+	c #474845",
"]+	c #7D8C4A",
"^+	c #7B8B49",
"/+	c #939371",
"(+	c #9B9480",
"_+	c #99997A",
":+	c #CCCCC1",
"<+	c #E0E3D9",
"[+	c #7F8F4B",
"}+	c #768747",
"|+	c #788948",
"1+	c #82914C",
"2+	c #808F4B",
"3+	c #81914B",
"4+	c #969377",
"5+	c #ACAB98",
"6+	c #CFD2C4",
"7+	c #CACFBD",
"8+	c #9C9781",
"9+	c #BCBDAD",
"0+	c #3E3E3D",
"a+	c #798A49",
"b+	c #728446",
"c+	c #748547",
"d+	c #748647",
"e+	c #ACAA98",
"f+	c #B6BAA3",
"g+	c #9C9682",
"h+	c #B9B7A9",
"i+	c #8E8B50",
"j+	c #8D8B50",
"k+	c #434343",
"l+	c #868686",
"m+	c #778748",
"n+	c #728346",
"o+	c #758647",
"p+	c #8E9368",
"q+	c #A2A189",
"r+	c #BAB9AA",
"s+	c #D2D2C7",
"t+	c #D3D6C8",
"u+	c #8A8D4F",
"v+	c #8F8A51",
"w+	c #252525",
"x+	c #7A8A49",
"y+	c #979378",
"z+	c #98937A",
"A+	c #9F9888",
"B+	c #C9C9BE",
"C+	c #888F4E",
"D+	c #898E4E",
"E+	c #010201",
"F+	c #1E1F1D",
"G+	c #010100",
"H+	c #7E8E4A",
"I+	c #798948",
"J+	c #738446",
"K+	c #718346",
"L+	c #778848",
"M+	c #8B9361",
"N+	c #99947C",
"O+	c #D6D6CE",
"P+	c #DDE0D6",
"Q+	c #84914D",
"R+	c #948753",
"S+	c #8B8D4F",
"T+	c #84924C",
"U+	c #7C8C49",
"V+	c #768748",
"W+	c #C9CABE",
"X+	c #8D8C50",
"Y+	c #918852",
"Z+	c #86904D",
"`+	c #918951",
" @	c #878F4E",
".@	c #7E8D4A",
"+@	c #7F8A57",
"@@	c #D1D1C8",
"#@	c #C1C7B1",
"$@	c #85904D",
"%@	c #85914D",
"&@	c #74834A",
"*@	c #8A9473",
"=@	c #798957",
"-@	c #6F8146",
";@	c #81904B",
">@	c #708145",
",@	c #6D7F45",
"'@	c #6C7E45",
")@	c #788848",
"                                                                ",
"                                                                ",
"      . + @                     # $ % % & %                     ",
"      * = -                     % ; > % , % % %   %             ",
"      ' ) !                   ~ { % ] % % ^ / % % % %           ",
"      ( _ !                   : ; < [ } | } } } } } %           ",
"      1 2 3           4 5 6 7 8 9 0 } } } } } } } } } %         ",
"      * a b c d       4 5 e f g } } } } } } } } } } } } %       ",
"      * h i j k l   4 m } } } } } } } n } o % f } } p % %       ",
"      @ q r s t u v % w } } } } } } } x y z A % B } } % }       ",
"      @ C D E F G H w I } } J } } } n K L %     M N % } O       ",
"      P Q R S T % U U } } } V W X } Y y % Z `     %  .} ..      ",
"      % +.% % @.} } #.} } } } $.%.} } } } % &.*.    ( ; =.      ",
"% % -.% % % ;.@.>.@.} } } } I ,.'.).} } } } !.% ~.  ( {.].      ",
"^.K  ./.@.} } } } } } } } } (.% _.% :.<.[.} } % }.|.1.2.3.      ",
"4.5.6.7.@.9 } } } I } } } } U % 8.9.0.a.b.c.} % d.E e.f.g.      ",
"h.i.j.% @.k.} } l.m.} } } l.% % n.o.1.p.q.r.s.@.t.|.F u.3.      ",
"% v.w.% @.9 } } x.y.U z. .% A.4     + B.C.D.E.g.F.|.F G.F.      ",
"% H.I.% @.J.} } 9 K.% % % L.M.N.  O.    * F F P.Q.R.S.T.M.      ",
"% % U.V.% k.9 } Y W.% X.Y.Z.`.s.M.          (  +.+++S.@+3.      ",
"  % , #+% % $+} n W %+    E Y.&+F.*+            P =+-+T.b.      ",
"  % ;+>+% 5.c.} I %           1 ,+'+b.3.          1 Y.)+D       ",
"    !+~+% 8 } I {+% ]+^+]+      /+(+_+:+<+'+l     |.F )+D       ",
"      % @.c.} % [+}+|+1+2+3+3+    |.@ 4+5+6+v 7+l |.8+9+D       ",
"        0+% } } %   a+b+c+d+c+[+      E e.F e+f+R p.g+h+D       ",
"      i+j+V.k+} l+%     m+n+o+c+m+]+      * p++ q+r+S.s+t+      ",
"      u+i+v+w+U } % %     3+x+o+c+b+^+        E y+z+A+B+t+      ",
"      C+D+  % E+F+} G+%       H+I+J+K+K+L+H+      M+N+O+P+      ",
"        C+Q+i+D+v+% % % R+S+D+T+  U+^+V+n+o+1+    |.F W+t+      ",
"        C+Q+  X+D+  D+i+Y+Z+`+ @      3+[+}+}+^+.@+@P @@#@      ",
"              $@D+S+%@  j+C+                [+U+c+J+&@*@=@-@;@  ",
"                  %@    D+                        ^+>@,@'@)@    "};
