/* XPM */
static char * player_1_2_xpm[] = {
"32 32 96 2",
"  	c #83924C",
". 	c #8E987B",
"+ 	c #7C846D",
"@ 	c #000000",
"# 	c #7B7C7A",
"$ 	c #A0A0A0",
"% 	c #818181",
"& 	c #B1B1B1",
"* 	c #818579",
"= 	c #8D8D8D",
"- 	c #C1C1C1",
"; 	c #A6A6A6",
"> 	c #747474",
", 	c #7F8379",
"' 	c #3A3B38",
") 	c #333332",
"! 	c #FFFFFF",
"~ 	c #B6B6B6",
"{ 	c #C5C5C5",
"] 	c #171914",
"^ 	c #AAAAAA",
"/ 	c #F5F5F5",
"( 	c #B3B3B3",
"_ 	c #3D3D3D",
": 	c #909090",
"< 	c #9B9B9B",
"[ 	c #E0E0DF",
"} 	c #959595",
"| 	c #9E9E9E",
"1 	c #E4E4E4",
"2 	c #FEFEFE",
"3 	c #ECECEC",
"4 	c #565656",
"5 	c #4E4F4D",
"6 	c #CDCDCD",
"7 	c #ACACAC",
"8 	c #484848",
"9 	c #DEDEDE",
"0 	c #D1D1D1",
"a 	c #D8D8D8",
"b 	c #9A9A9A",
"c 	c #424342",
"d 	c #404040",
"e 	c #4A4A4A",
"f 	c #8B8B8B",
"g 	c #656565",
"h 	c #3C3C3B",
"i 	c #FAFAFA",
"j 	c #BBBBBB",
"k 	c #757772",
"l 	c #23271C",
"m 	c #070707",
"n 	c #F8F8F7",
"o 	c #4B4B4B",
"p 	c #9C9C9C",
"q 	c #F6F6F6",
"r 	c #8F8F8F",
"s 	c #535353",
"t 	c #FCFCFC",
"u 	c #FDFDFD",
"v 	c #474B41",
"w 	c #808A6F",
"x 	c #F1F1F1",
"y 	c #CBCBCB",
"z 	c #989898",
"A 	c #F8F8F8",
"B 	c #5A5A5A",
"C 	c #303426",
"D 	c #414140",
"E 	c #505050",
"F 	c #5F5F5F",
"G 	c #7A7A7A",
"H 	c #718053",
"I 	c #313A1C",
"J 	c #313230",
"K 	c #B3B4B3",
"L 	c #929292",
"M 	c #C4C4C4",
"N 	c #848484",
"O 	c #EBEBEB",
"P 	c #888888",
"Q 	c #808F4A",
"R 	c #46532A",
"S 	c #232A13",
"T 	c #474E3B",
"U 	c #161813",
"V 	c #869171",
"W 	c #A8A8A8",
"X 	c #787C72",
"Y 	c #373737",
"Z 	c #ADB1A7",
"` 	c #6B773D",
" .	c #555555",
"..	c #E9E9E9",
"+.	c #797979",
"@.	c #3E4925",
"                                                                ",
"                                                                ",
"                                                                ",
"                                                                ",
"                                                                ",
"                                                                ",
"                                                                ",
"                                . + @ @ # @                     ",
"                                @ $ % @ & @ @ @   @             ",
"                              * = @ - @ @ ; > @ @ @ @           ",
"          @ @ @ % @           , $ ' ) ! ~ ! ! ! ! ! @           ",
"        @ ! { { { ! @ % @ @ ] ^ / ( ! ! ! ! ! ! ! ! ! @         ",
"      @ _ ! ! ! ! ! ! { { : < [ ! ! ! ! ! ! ! ! ! ! ! ! @       ",
"@ @ } @ | ! ! ! ! ! ! ! ! 1 1 ! ! ! ! 2 ! 3 @ 4 ! ! _ @ @       ",
"5 6 7 8 9 ! ! ! ! ! ! ! ! ! ! ! ! ! ! 0 a b c @ d ! ! @ !       ",
"e f g h ! ! ! ! ! i ! ! ! ! j ! ! ! 2 6 k @     l m @ ! n       ",
"o | p @ ! ! ! ! ! q ! { { { r s t ! u a @ v w     @ 7 ! x       ",
"@ y z @ { u ! ! t @ % { { { { @ A ! ! ! ! @ B C     @ $ @       ",
"@ D r E F ! ! G / @ @ @ @ @ H I J K ! ! ! ! ! { L   @ @         ",
"@ @ M N E { O @ @ P Q R @         @ S T U ! ! { V               ",
"  @ ! N N { { 6 @ s                       W ! { X               ",
"  @ Y N N { { @ @ @                 @ @ @ W ! { Z               ",
"  ` Y N N { { @ @ @               @ @ ! ! ! @ @ @               ",
"  @  .N ..{ @ @                   @ @ ! - !                     ",
"  @ @ @ +.{ @ @                                                 ",
"  @.@ @ @ @ @                                                   ",
"      @ @ @                                                     ",
"                                                                ",
"                                                                ",
"                                                                ",
"                                                                ",
"                                                                "};
