/* XPM */
static char * player_4_xpm[] = {
"32 32 105 2",
"  	c #83924C",
". 	c #8E987B",
"+ 	c #7C846D",
"@ 	c #000000",
"# 	c #7B7C7A",
"$ 	c #A0A0A0",
"% 	c #818181",
"& 	c #B1B1B1",
"* 	c #818579",
"= 	c #8D8D8D",
"- 	c #C1C1C1",
"; 	c #A6A6A6",
"> 	c #747474",
", 	c #141809",
"' 	c #1C2014",
") 	c #7F8379",
"! 	c #3A3B38",
"~ 	c #333332",
"{ 	c #FFFFFF",
"] 	c #B6B6B6",
"^ 	c #C5C5C5",
"/ 	c #757574",
"( 	c #171914",
"_ 	c #AAAAAA",
": 	c #F5F5F5",
"< 	c #B3B3B3",
"[ 	c #959595",
"} 	c #CCCCCC",
"| 	c #797979",
"1 	c #565656",
"2 	c #E0E0DF",
"3 	c #4E4F4D",
"4 	c #CDCDCD",
"5 	c #ACACAC",
"6 	c #484848",
"7 	c #FEFEFE",
"8 	c #ECECEC",
"9 	c #3D3D3D",
"0 	c #4A4A4A",
"a 	c #8B8B8B",
"b 	c #656565",
"c 	c #3C3C3B",
"d 	c #FAFAFA",
"e 	c #D1D1D1",
"f 	c #D8D8D8",
"g 	c #9A9A9A",
"h 	c #424342",
"i 	c #404040",
"j 	c #4B4B4B",
"k 	c #9E9E9E",
"l 	c #9C9C9C",
"m 	c #D2D2D2",
"n 	c #F6F6F6",
"o 	c #BBBBBB",
"p 	c #757772",
"q 	c #23271C",
"r 	c #070707",
"s 	c #F8F8F7",
"t 	c #CBCBCB",
"u 	c #989898",
"v 	c #FCFCFC",
"w 	c #5F5F5F",
"x 	c #FDFDFD",
"y 	c #535353",
"z 	c #474B41",
"A 	c #808A6F",
"B 	c #F1F1F1",
"C 	c #414140",
"D 	c #8F8F8F",
"E 	c #E4E4E4",
"F 	c #4E4E4E",
"G 	c #F8F8F8",
"H 	c #5A5A5A",
"I 	c #303426",
"J 	c #C4C4C4",
"K 	c #353535",
"L 	c #888888",
"M 	c #5D5D5D",
"N 	c #313230",
"O 	c #B3B4B3",
"P 	c #929292",
"Q 	c #898989",
"R 	c #E1E1E1",
"S 	c #24291B",
"T 	c #1E2314",
"U 	c #232A13",
"V 	c #474E3B",
"W 	c #161813",
"X 	c #869171",
"Y 	c #979797",
"Z 	c #949494",
"` 	c #A8A8A8",
" .	c #787C72",
"..	c #1B1E16",
"+.	c #919290",
"@.	c #474845",
"#.	c #ADB1A7",
"$.	c #3E3E3D",
"%.	c #434343",
"&.	c #868686",
"*.	c #252525",
"=.	c #E8E8E8",
"-.	c #010201",
";.	c #1E1F1D",
">.	c #010100",
"                                                                ",
"                                                                ",
"                                                                ",
"                                                                ",
"                                                                ",
"                                                                ",
"                                                                ",
"                                                                ",
"                                . + @ @ # @                     ",
"                                @ $ % @ & @ @ @   @             ",
"                              * = @ - @ @ ; > @ @ @ @           ",
"            , ' @             ) $ ! ~ { ] { { { { { @           ",
"      @   @ @ ^ @ @ / @     ( _ : < { { { { { { { { { @         ",
"@ @ [ @ @ @ } ^ ^ ^ ^ | @ @ 1 2 { { { { { { { { { { { { @       ",
"3 4 5 6 ^ { { { { { { { { { { { { { { 7 { 8 @ 1 { { 9 @ @       ",
"0 a b c ^ : { { { d { { { { { { { { { e f g h @ i { { @ {       ",
"j k l @ ^ m { { { n { { { { o { { { 7 4 p @     q r @ { s       ",
"@ t u @ ^ : { { v w { { { x 1 y v { x f @ z A     @ 5 { B       ",
"@ C D @ ^ E { { : F $ { { { { @ G { { { { @ H I     @ $ @       ",
"@ @ J K @ m : { x L @ M { { { @ N O { { { { { ^ P   @ @         ",
"  @ & Q @ @ R { 7 y S @ @ T @     @ U V W { { ^ X               ",
"  @ Y Z @ a ` { d @                       ` { ^  .              ",
"    ..+.@ _ { d @.@                 @ @ @ ` { ^ #.              ",
"      @ ^ ` { @                   @ @ { { { @ @ @               ",
"        $.@ { { @                 @ @ { - {                     ",
"          K %.{ &.@                                             ",
"            *.=.{ @ @                                           ",
"            @ -.;.{ >.@                                         ",
"                  @ @ @                                         ",
"                                                                ",
"                                                                ",
"                                                                "};
