/* XPM */
static char * player_3_xpm[] = {
"32 32 95 2",
"  	c #83924C",
". 	c #8E987B",
"+ 	c #7C846D",
"@ 	c #000000",
"# 	c #7B7C7A",
"$ 	c #A0A0A0",
"% 	c #818181",
"& 	c #B1B1B1",
"* 	c #68743B",
"= 	c #818579",
"- 	c #8D8D8D",
"; 	c #C1C1C1",
"> 	c #A6A6A6",
", 	c #747474",
"' 	c #FFFFFF",
") 	c #C5C5C5",
"! 	c #7F8379",
"~ 	c #3A3B38",
"{ 	c #333332",
"] 	c #B6B6B6",
"^ 	c #3D3D3D",
"/ 	c #171914",
"( 	c #AAAAAA",
"_ 	c #F5F5F5",
": 	c #B3B3B3",
"< 	c #959595",
"[ 	c #9E9E9E",
"} 	c #909090",
"| 	c #9B9B9B",
"1 	c #E0E0DF",
"2 	c #4E4F4D",
"3 	c #CDCDCD",
"4 	c #ACACAC",
"5 	c #484848",
"6 	c #DEDEDE",
"7 	c #E4E4E4",
"8 	c #FEFEFE",
"9 	c #ECECEC",
"0 	c #565656",
"a 	c #4A4A4A",
"b 	c #8B8B8B",
"c 	c #656565",
"d 	c #3C3C3B",
"e 	c #FAFAFA",
"f 	c #D1D1D1",
"g 	c #D8D8D8",
"h 	c #9A9A9A",
"i 	c #424342",
"j 	c #404040",
"k 	c #4B4B4B",
"l 	c #9C9C9C",
"m 	c #767676",
"n 	c #7A7A7A",
"o 	c #BBBBBB",
"p 	c #757772",
"q 	c #23271C",
"r 	c #070707",
"s 	c #F8F8F7",
"t 	c #CBCBCB",
"u 	c #989898",
"v 	c #FDFDFD",
"w 	c #FCFCFC",
"x 	c #8F8F8F",
"y 	c #535353",
"z 	c #474B41",
"A 	c #69725B",
"B 	c #808F4A",
"C 	c #F1F1F1",
"D 	c #414140",
"E 	c #323232",
"F 	c #F7F7F7",
"G 	c #F8F8F8",
"H 	c #D4D4D4",
"I 	c #C4C4C4",
"J 	c #3C3C3C",
"K 	c #EBEBEB",
"L 	c #718053",
"M 	c #313A1C",
"N 	c #313230",
"O 	c #B3B4B3",
"P 	c #AFB2AB",
"Q 	c #060606",
"R 	c #414141",
"S 	c #E8EAE3",
"T 	c #5F625A",
"U 	c #373737",
"V 	c #6E6E6E",
"W 	c #768444",
"X 	c #64753E",
"Y 	c #54594A",
"Z 	c #31352A",
"` 	c #E8E8E8",
" .	c #3C4320",
"..	c #262D14",
"+.	c #B7BBAD",
"                                                                ",
"                                                                ",
"                                                                ",
"                                                                ",
"                                                                ",
"                                                                ",
"                                                                ",
"                                                                ",
"                                . + @ @ # @                     ",
"                                @ $ % @ & @ @ @   @             ",
"          @ @ @ % @ *         = - @ ; @ @ > , @ @ @ @           ",
"        @ ' ) ) ) ' @ @ *     ! $ ~ { ' ] ' ' ' ' ' @           ",
"      @ ^ ' ' ' ' ' ' % @ @ / ( _ : ' ' ' ' ' ' ' ' ' @         ",
"@ @ < @ [ ' ' ' ' ' ' ) ) } | 1 ' ' ' ' ' ' ' ' ' ' ' ' @       ",
"2 3 4 5 6 ' ' ' ' ' ' ' ' 7 7 ' ' ' ' 8 ' 9 @ 0 ' ' ^ @ @       ",
"a b c d ' ' ' ' ' e ' ' ' ' ' ' ' ' ' f g h i @ j ' ' @ '       ",
"k [ l @ ' ' ' ' ' m n ' ' ' o ' ' ' 8 3 p @     q r @ ' s       ",
"@ t u @ } v ' ' w @ @ ) ) ) x y w ' v g @ z A B   @ 4 ' C       ",
"@ D x E @ ' ' 9 F @ @ [ ) ) ) @ G ' ' ' H @ @ @     @ $ @       ",
"@ @ I J @ @ K C ' @ @ @ @ @ L M N O ' ' ' @ ' @ @   @ @         ",
"  @ '   @ @ @ 3 ' ' ' P @         @ @ ' ' @ 3 ) @ @             ",
"  @     Q R @ @ @ @ @ ' @           @ S ' ' @ ) T @             ",
"        @ @ @ U V n @ ' n @ W       @ @ @ ' ' ) @ @             ",
"          X Y Z @ @ @ ` @ @  .          @ @ ' @ @               ",
"                    ..` @ @               @ ' '                 ",
"                    @ @ @ @                 @ ' '               ",
"                    @ @ @                     @ ' +.            ",
"                    @ @                       @ @ @ @           ",
"                                              @ @ @             ",
"                                                                ",
"                                                                ",
"                                                                "};
