/* XPM */
static char * player_2_xpm[] = {
"32 32 91 1",
" 	c #83924C",
".	c #8E987B",
"+	c #7C846D",
"@	c #000000",
"#	c #7B7C7A",
"$	c #A0A0A0",
"%	c #818181",
"&	c #B1B1B1",
"*	c #68743B",
"=	c #818579",
"-	c #8D8D8D",
";	c #C1C1C1",
">	c #A6A6A6",
",	c #747474",
"'	c #FFFFFF",
")	c #C5C5C5",
"!	c #7F8379",
"~	c #3A3B38",
"{	c #333332",
"]	c #B6B6B6",
"^	c #3D3D3D",
"/	c #171914",
"(	c #AAAAAA",
"_	c #F5F5F5",
":	c #B3B3B3",
"<	c #959595",
"[	c #9E9E9E",
"}	c #909090",
"|	c #9B9B9B",
"1	c #E0E0DF",
"2	c #4E4F4D",
"3	c #CDCDCD",
"4	c #ACACAC",
"5	c #484848",
"6	c #DEDEDE",
"7	c #E4E4E4",
"8	c #FEFEFE",
"9	c #ECECEC",
"0	c #565656",
"a	c #4A4A4A",
"b	c #8B8B8B",
"c	c #656565",
"d	c #3C3C3B",
"e	c #FAFAFA",
"f	c #D1D1D1",
"g	c #D8D8D8",
"h	c #9A9A9A",
"i	c #424342",
"j	c #404040",
"k	c #4B4B4B",
"l	c #9C9C9C",
"m	c #F6F6F6",
"n	c #BBBBBB",
"o	c #757772",
"p	c #23271C",
"q	c #070707",
"r	c #F8F8F7",
"s	c #CBCBCB",
"t	c #989898",
"u	c #FDFDFD",
"v	c #FCFCFC",
"w	c #8F8F8F",
"x	c #535353",
"y	c #474B41",
"z	c #69725B",
"A	c #808F4A",
"B	c #F1F1F1",
"C	c #414140",
"D	c #505050",
"E	c #5F5F5F",
"F	c #7A7A7A",
"G	c #F8F8F8",
"H	c #D4D4D4",
"I	c #C4C4C4",
"J	c #848484",
"K	c #EBEBEB",
"L	c #888888",
"M	c #718053",
"N	c #313A1C",
"O	c #313230",
"P	c #B3B4B3",
"Q	c #46532A",
"R	c #373737",
"S	c #E8EAE3",
"T	c #5F625A",
"U	c #6B773D",
"V	c #555555",
"W	c #E9E9E9",
"X	c #797979",
"Y	c #3E4925",
"Z	c #B7BBAD",
"                                ",
"                                ",
"                                ",
"                                ",
"                                ",
"                                ",
"                                ",
"                                ",
"                .+@@#@          ",
"                @$%@&@@@ @      ",
"     @@@%@*    =-@;@@>,@@@@     ",
"    @')))'@@*  !$~{']'''''@     ",
"   @^''''''%@@/(_:'''''''''@    ",
"@@<@[''''''))}|1''''''''''''@   ",
"23456''''''''77''''8'9@0''^@@   ",
"abcd'''''e'''''''''fghi@j''@'   ",
"k[l@'''''m''''n'''83o@  pq@'r   ",
"@st@)u''v@%)))wxv'ug@yzA @4'B   ",
"@CwDE''F_@@))))@G'''H@@@  @$@   ",
"@@IJD)K@@L@@@@MNOP'''@'@@ @@    ",
" @'JJ))3@x Q@    @@''@3)@@      ",
" @RJJ))@@@        @S''@)T@      ",
" URJJ))@@@        @@@'')@@      ",
" @VJW)@@            @@'@@       ",
" @@@X)@@             @''        ",
" Y@@@@@               @''       ",
"   @@@                 @'Z      ",
"                       @@@@     ",
"                       @@@      ",
"                                ",
"                                ",
"                                "};
