/* XPM */
static char * player_1_xpm[] = {
"32 32 96 2",
"  	c #83924C",
". 	c #8E987B",
"+ 	c #7C846D",
"@ 	c #000000",
"# 	c #7B7C7A",
"$ 	c #A0A0A0",
"% 	c #818181",
"& 	c #B1B1B1",
"* 	c #68743B",
"= 	c #818579",
"- 	c #8D8D8D",
"; 	c #C1C1C1",
"> 	c #A6A6A6",
", 	c #747474",
"' 	c #FFFFFF",
") 	c #C5C5C5",
"! 	c #7F8379",
"~ 	c #3A3B38",
"{ 	c #333332",
"] 	c #B6B6B6",
"^ 	c #3D3D3D",
"/ 	c #171914",
"( 	c #AAAAAA",
"_ 	c #F5F5F5",
": 	c #B3B3B3",
"< 	c #959595",
"[ 	c #9E9E9E",
"} 	c #909090",
"| 	c #9B9B9B",
"1 	c #E0E0DF",
"2 	c #4E4F4D",
"3 	c #CDCDCD",
"4 	c #ACACAC",
"5 	c #484848",
"6 	c #DEDEDE",
"7 	c #E4E4E4",
"8 	c #FEFEFE",
"9 	c #ECECEC",
"0 	c #565656",
"a 	c #4A4A4A",
"b 	c #8B8B8B",
"c 	c #656565",
"d 	c #3C3C3B",
"e 	c #FAFAFA",
"f 	c #D1D1D1",
"g 	c #D8D8D8",
"h 	c #9A9A9A",
"i 	c #424342",
"j 	c #404040",
"k 	c #4B4B4B",
"l 	c #9C9C9C",
"m 	c #F6F6F6",
"n 	c #BBBBBB",
"o 	c #757772",
"p 	c #23271C",
"q 	c #070707",
"r 	c #F8F8F7",
"s 	c #CBCBCB",
"t 	c #989898",
"u 	c #FDFDFD",
"v 	c #FCFCFC",
"w 	c #8F8F8F",
"x 	c #535353",
"y 	c #474B41",
"z 	c #808A6F",
"A 	c #F1F1F1",
"B 	c #414140",
"C 	c #505050",
"D 	c #5F5F5F",
"E 	c #7A7A7A",
"F 	c #F8F8F8",
"G 	c #5A5A5A",
"H 	c #303426",
"I 	c #C4C4C4",
"J 	c #848484",
"K 	c #EBEBEB",
"L 	c #888888",
"M 	c #718053",
"N 	c #313A1C",
"O 	c #313230",
"P 	c #B3B4B3",
"Q 	c #929292",
"R 	c #46532A",
"S 	c #232A13",
"T 	c #474E3B",
"U 	c #161813",
"V 	c #869171",
"W 	c #373737",
"X 	c #A8A8A8",
"Y 	c #787C72",
"Z 	c #6B773D",
"` 	c #ADB1A7",
" .	c #555555",
"..	c #E9E9E9",
"+.	c #797979",
"@.	c #3E4925",
"                                                                ",
"                                                                ",
"                                                                ",
"                                                                ",
"                                                                ",
"                                                                ",
"                                                                ",
"                                                                ",
"                                . + @ @ # @                     ",
"                                @ $ % @ & @ @ @   @             ",
"          @ @ @ % @ *         = - @ ; @ @ > , @ @ @ @           ",
"        @ ' ) ) ) ' @ @ *     ! $ ~ { ' ] ' ' ' ' ' @           ",
"      @ ^ ' ' ' ' ' ' % @ @ / ( _ : ' ' ' ' ' ' ' ' ' @         ",
"@ @ < @ [ ' ' ' ' ' ' ) ) } | 1 ' ' ' ' ' ' ' ' ' ' ' ' @       ",
"2 3 4 5 6 ' ' ' ' ' ' ' ' 7 7 ' ' ' ' 8 ' 9 @ 0 ' ' ^ @ @       ",
"a b c d ' ' ' ' ' e ' ' ' ' ' ' ' ' ' f g h i @ j ' ' @ '       ",
"k [ l @ ' ' ' ' ' m ' ' ' ' n ' ' ' 8 3 o @     p q @ ' r       ",
"@ s t @ ) u ' ' v @ % ) ) ) w x v ' u g @ y z     @ 4 ' A       ",
"@ B w C D ' ' E _ @ @ ) ) ) ) @ F ' ' ' ' @ G H     @ $ @       ",
"@ @ I J C ) K @ @ L @ @ @ @ M N O P ' ' ' ' ' ) Q   @ @         ",
"  @ ' J J ) ) 3 @ x   R @         @ S T U ' ' ) V               ",
"  @ W J J ) ) @ @ @                       X ' ) Y               ",
"  Z W J J ) ) @ @ @                 @ @ @ X ' ) `               ",
"  @  .J ..) @ @                   @ @ ' ' ' @ @ @               ",
"  @ @ @ +.) @ @                   @ @ ' ; '                     ",
"  @.@ @ @ @ @                                                   ",
"      @ @ @                                                     ",
"                                                                ",
"                                                                ",
"                                                                ",
"                                                                ",
"                                                                "};
