/* XPM */
static char * right_xpm[] = {
"32 32 15 1",
" 	c #83924C",
".	c #98A154",
"+	c #677A43",
"@	c #9E7E57",
"#	c #B0905D",
"$	c #A6845D",
"%	c #BD9964",
"&	c #797B49",
"*	c #6C7A45",
"=	c #9A9955",
"-	c #999A55",
";	c #9A9655",
">	c #6D7A45",
",	c #A9895B",
"'	c #AC8C5C",
"        ...+@###################",
"         ..+@###################",
"          +@########$$##%#######",
"         ..+@#######$$##########",
"         ...+@##############$$##",
"      ...+..+@##############$$##",
"       .. ++@###################",
"         ..+@#############%#####",
"        ...+@###################",
"          ++@#######%%##########",
"         ...+@######%%##########",
"      ..  ..+@###########$$#####",
"     ...  ++@############$$###$$",
"         +..+@#########$######$$",
"         ...+@##################",
"         +++@###################",
"        ...+@###################",
"         ..+@#######$###########",
"          +@############$$######",
"         ..+@###########$$######",
"         ...+@################%#",
"      ...+..+@##################",
"       .. ++@######%%###########",
"         ..+@######%%###########",
"        ...+@###################",
"          &*@###################",
"         .=-+@##################",
"      ..  .;>@##################",
"     ...  +>@#############%#####",
"         +..+@##################",
"         ...+@,'################",
"         +++@##'################"};
