/* XPM */
static char * top_left_xpm[] = {
"32 32 49 1",
" 	c #B0905D",
".	c #AF8F5D",
"+	c #AD8D5D",
"@	c #AD8E5C",
"#	c #9E8157",
"$	c #AD8D5C",
"%	c #AC8C5B",
"&	c #9E7E57",
"*	c #A38359",
"=	c #A28258",
"-	c #9B8155",
";	c #767E48",
">	c #997F55",
",	c #9C7F56",
"'	c #967F54",
")	c #A58961",
"!	c #677A43",
"~	c #798149",
"{	c #929C52",
"]	c #717E46",
"^	c #758147",
"/	c #839250",
"(	c #98A154",
"_	c #778348",
":	c #97A154",
"<	c #728347",
"[	c #738347",
"}	c #959E53",
"|	c #939D52",
"1	c #949E53",
"2	c #839154",
"3	c #959F53",
"4	c #85934D",
"5	c #949E52",
"6	c #768648",
"7	c #83924C",
"8	c #96A053",
"9	c #939E52",
"0	c #86944D",
"a	c #808F4B",
"b	c #748447",
"c	c #909B51",
"d	c #949D52",
"e	c #88964E",
"f	c #82914C",
"g	c #84934C",
"h	c #A0815B",
"i	c #AE9063",
"j	c #8D9958",
"                                ",
"                    ..    .. .. ",
"                 .+@##$..$##%## ",
"              &&*#=-;;>,,>;;';;)",
"           &&&!!!;'~{{]]]]{{^{{/",
"          &!!!((!{_{:{<{{[}|[{12",
"         &!((!(((34356738490abc/",
"        &!!((77(70740d3e54444fg7",
"       &!((!(7777777483447433477",
"      &!!((777777777450777438477",
"     &!((!(777777777747777705477",
"     &!(((7777777777777777774777",
"     &!!!77777777777777777777777",
"    &!(((77777777777777777777777",
"    &!((!77777777777777777777777",
"     &!!777777777777777777777777",
"   h/2/7777777777777777777777777",
" .#;{1cg777777777777777777777777",
" .#;{{bf444777777777777777777777",
"  %'^[a4385477777777777777777777",
" .#;{|04330777777777777777777777",
" .#;{}94447777777777777777777777",
"  $>][44777777777777777777777777",
"  .,]{85477777777777777777777777",
"  .,]{3e477777777777777777777777",
"  $>]<73307777777777777777777777",
" .#;{{6d854777777777777777777777",
" .#;{:50447777777777777777777777",
"  @-~{34777777777777777777777777",
"   %'_47777777777777777777777777",
"  .#;{30777777777777777777777777",
"   i/7j7777777777777777777777777"};
