/* XPM */
static char * top_right_xpm[] = {
"32 32 49 1",
" 	c #B0905D",
".	c #AF8F5D",
"+	c #AD8E5C",
"@	c #9E8157",
"#	c #AD8D5C",
"$	c #AC8C5B",
"%	c #AE9063",
"&	c #9B8155",
"*	c #767E48",
"=	c #997F55",
"-	c #9C7F56",
";	c #967F54",
">	c #A0815B",
",	c #839250",
"'	c #798149",
")	c #929C52",
"!	c #717E46",
"~	c #758147",
"{	c #9E7E57",
"]	c #83924C",
"^	c #778348",
"/	c #97A154",
"(	c #728347",
"_	c #738347",
":	c #959E53",
"<	c #939D52",
"[	c #949E53",
"}	c #839154",
"|	c #677A43",
"1	c #8D9958",
"2	c #959F53",
"3	c #85934D",
"4	c #949E52",
"5	c #768648",
"6	c #96A053",
"7	c #939E52",
"8	c #86944D",
"9	c #808F4B",
"0	c #748447",
"a	c #909B51",
"b	c #98A154",
"c	c #949D52",
"d	c #88964E",
"e	c #82914C",
"f	c #84934C",
"g	c #A38359",
"h	c #A28258",
"i	c #AD8D5D",
"j	c #A58961",
"                                ",
"    ..    .. ..                 ",
" . +@@#..#@@$@@                 ",
"%@$&**=--=**;**>                ",
",*;'))!!!!))~)), {{             ",
"])^)/)())_:<_)[}{||{{{          ",
"123245]2637890a,|bb|||{         ",
"]8]38c2d43333ef]|bb|bb|{        ",
"]]]]36233]3223]]]|b|bb||{       ",
"]]]]348]]]3263]]]]]]b|bb|{      ",
"]]]]]3]]]]]843]]]]]]]bbb||{     ",
"]]]]]]]]]]]]3]]]]]]]]]]|bb|{    ",
"]]]]]]]]]]]]]]]]]]]]]]]bbb|{    ",
"]]]]]]]]]]]]]]]]]]]]]]]]]||{    ",
"]]]]]]]]]]]]]]]]]]]]]]]]]bb|{   ",
"]]]]]]]]]]]]]]]]]]]]]]]]bbb|{   ",
"]]]]]]]]]]]]]]]]]]]]]]]]]b||g   ",
"]]]]]]]]]]]]]]]]]]]]]]]]82)*@.  ",
"]]]]]]]]]]]]]]]]]]]]]]]]]3^;hi  ",
"]]]]]]]]]]]]]]]]]]]]]]]]32)'&+  ",
"]]]]]]]]]]]]]]]]]]]]]]3384/)*@. ",
"]]]]]]]]]]]]]]]]]]]]]346c5))*@. ",
"]]]]]]]]]]]]]]]]]]]]]]822](!=#  ",
"]]]]]]]]]]]]]]]]]]]]]]]3d2)!-.  ",
"]]]]]]]]]]]]]]]]]]]]]]]346)!-.  ",
"]]]]]]]]]]]]]]]]]]]]]]]]33_!=#  ",
"]]]]]]]]]]]]]]]]]]]]]]3337:)*@. ",
"]]]]]]]]]]]]]]]]]]]]]82238<)*@. ",
"]]]]]]]]]]]]]]]]]]]]346239_~;$  ",
"]]]]]]]]]]]]]]]]]]]]]333e0))*@. ",
"]]]]]]]]]]]]]]]]]]]]]]]]fa[)*@. ",
"]]]]]]]]]]]]]]]]]]]]]]]]],},j   "};
